<svg width="20" height="20" viewBox="0 0 20 20" fill="none" xmlns="http://www.w3.org/2000/svg">
<circle cx="10" cy="10" r="10" fill="white"/>
<path d="M9.8446 6.78934L10.0572 7.00392L10.2321 6.75755C10.3243 6.62762 11.0971 5.70847 12.7676 5.70847C13.7423 5.70847 14.4571 6.14476 14.9345 6.75078C15.4172 7.36358 15.6552 8.14929 15.6552 8.82219C15.6552 10.8452 14.3638 12.5656 12.9626 13.7996C12.2664 14.4128 11.5542 14.8957 10.9869 15.2244C10.7031 15.3888 10.4581 15.5132 10.2716 15.5956C10.1782 15.6369 10.1023 15.6664 10.0454 15.685C10.0053 15.6981 9.98333 15.7029 9.97516 15.7047C9.96705 15.7029 9.94529 15.6982 9.90573 15.6851C9.84933 15.6665 9.77406 15.6371 9.68131 15.5958C9.49631 15.5135 9.25326 15.3892 8.97188 15.2248C8.40927 14.8962 7.7034 14.4135 7.01334 13.8003C5.62493 12.5667 4.34487 10.8461 4.34487 8.82219C4.34487 8.14929 4.58286 7.36358 5.06561 6.75078C5.543 6.14476 6.25778 5.70847 7.23248 5.70847C8.80762 5.70847 9.58929 6.52346 9.81191 6.75557C9.82461 6.76881 9.83549 6.78015 9.8446 6.78934Z" fill="#E4E7EC" stroke="white" stroke-width="0.507859"/>
</svg>
