<svg width="24" height="24" viewBox="0 0 24 24" fill="none" xmlns="http://www.w3.org/2000/svg">
<g clip-path="url(#clip0_2815_761)">
<path d="M23.1429 8.57145C23.1429 8.11679 22.9623 7.68075 22.6408 7.35926C22.3193 7.03777 21.8833 6.85716 21.4286 6.85716H18L15.4286 3.42859H8.57146L6.00003 6.85716H2.57146C2.11681 6.85716 1.68077 7.03777 1.35928 7.35926C1.03779 7.68075 0.857178 8.11679 0.857178 8.57145V18.8572C0.857178 19.3118 1.03779 19.7479 1.35928 20.0693C1.68077 20.3908 2.11681 20.5714 2.57146 20.5714H21.4286C21.8833 20.5714 22.3193 20.3908 22.6408 20.0693C22.9623 19.7479 23.1429 19.3118 23.1429 18.8572V8.57145Z" stroke="black" stroke-width="2" stroke-linecap="round" stroke-linejoin="round"/>
<path d="M12.0001 16.7143C14.1303 16.7143 15.8572 14.9874 15.8572 12.8571C15.8572 10.7269 14.1303 9 12.0001 9C9.86985 9 8.14294 10.7269 8.14294 12.8571C8.14294 14.9874 9.86985 16.7143 12.0001 16.7143Z" stroke="#4E2AF4" stroke-width="2" stroke-linecap="round" stroke-linejoin="round"/>
<path d="M23 3C23 4.10457 22.1046 5 21 5C19.8954 5 19 4.10457 19 3C19 1.89543 19.8954 1 21 1C22.1046 1 23 1.89543 23 3Z" fill="#4E2AF4"/>
</g>
<defs>
<clipPath id="clip0_2815_761">
<rect width="24" height="24" fill="white"/>
</clipPath>
</defs>
</svg>
