<svg width="24" height="24" viewBox="0 0 24 24" fill="none" xmlns="http://www.w3.org/2000/svg">
<g clip-path="url(#clip0_211_5360)">
<mask id="mask0_211_5360" style="mask-type:luminance" maskUnits="userSpaceOnUse" x="0" y="0" width="24" height="24">
<path d="M24 0H0V24H24V0Z" fill="white"/>
</mask>
<g mask="url(#mask0_211_5360)">
<path d="M11.972 10.0776C13.5915 10.0776 14.9065 11.3926 14.9065 13.0121C14.9065 14.6316 13.5915 15.9465 11.972 15.9465C10.3525 15.9465 9.0376 14.6316 9.0376 13.0121C9.0376 11.3926 10.3525 10.0776 11.972 10.0776Z" fill="#828282"/>
<path d="M16.9316 10.1302C16.5408 10.1302 16.2242 9.81346 16.2242 9.4228C16.2242 9.03215 16.5408 8.71541 16.9316 8.71541C17.3222 8.71541 17.639 9.03215 17.639 9.4228C17.639 9.81346 17.3222 10.1302 16.9316 10.1302ZM11.9721 17.4138C9.54118 17.4138 7.57058 15.4432 7.57058 13.0122C7.57058 10.5813 9.54118 8.61053 11.9721 8.61053C14.4031 8.61053 16.3737 10.5813 16.3737 13.0122C16.3737 15.4432 14.4031 17.4138 11.9721 17.4138ZM20.3014 7.12839H17.2339L15.221 5.15615C14.8659 4.80808 14.3886 4.61328 13.8914 4.61328H10.2327C9.73539 4.61328 9.258 4.80808 8.90287 5.15615L6.89 7.12839H6.40271V6.84896C6.40271 6.51553 6.1324 6.24508 5.79888 6.24508H4.80576C4.47224 6.24508 4.20192 6.51553 4.20192 6.84896V7.12839H3.7228C2.85462 7.12839 2.15088 7.83232 2.15088 8.7005V17.8331C2.15088 18.7013 2.85462 19.4051 3.7228 19.4051H20.3014C21.1696 19.4051 21.8734 18.7013 21.8734 17.8331V8.7005C21.8734 7.83232 21.1696 7.12839 20.3014 7.12839Z" fill="#828282"/>
</g>
</g>
<defs>
<clipPath id="clip0_211_5360">
<rect width="24" height="24" fill="white"/>
</clipPath>
</defs>
</svg>
