<svg width="24" height="24" viewBox="0 0 24 24" fill="none" xmlns="http://www.w3.org/2000/svg">
<g clip-path="url(#clip0_1223_6469)">
<path d="M23.7068 0.293145C23.5193 0.105674 23.2649 0.000358582 22.9998 0.000358582C22.7346 0.000358582 22.4803 0.105674 22.2928 0.293145L11.9998 10.5861L1.70679 0.293145C1.51926 0.105674 1.26495 0.000358582 0.999786 0.000358582C0.734622 0.000358582 0.480314 0.105674 0.292786 0.293145C0.105315 0.480673 0 0.734981 0 1.00015C0 1.26531 0.105315 1.51962 0.292786 1.70715L10.5858 12.0001L0.292786 22.2931C0.105315 22.4807 0 22.735 0 23.0001C0 23.2653 0.105315 23.5196 0.292786 23.7071C0.480314 23.8946 0.734622 23.9999 0.999786 23.9999C1.26495 23.9999 1.51926 23.8946 1.70679 23.7071L11.9998 13.4141L22.2928 23.7071C22.4803 23.8946 22.7346 23.9999 22.9998 23.9999C23.2649 23.9999 23.5193 23.8946 23.7068 23.7071C23.8943 23.5196 23.9996 23.2653 23.9996 23.0001C23.9996 22.735 23.8943 22.4807 23.7068 22.2931L13.4138 12.0001L23.7068 1.70715C23.8943 1.51962 23.9996 1.26531 23.9996 1.00015C23.9996 0.734981 23.8943 0.480673 23.7068 0.293145Z" fill="black"/>
</g>
<defs>
<clipPath id="clip0_1223_6469">
<rect width="24" height="24" fill="white"/>
</clipPath>
</defs>
</svg>
