<svg width="16" height="16" viewBox="0 0 16 16" fill="none" xmlns="http://www.w3.org/2000/svg">
<path d="M11.9999 3.99999C11.8749 3.875 11.7053 3.80479 11.5285 3.80479C11.3518 3.80479 11.1822 3.875 11.0572 3.99999L7.99988 7.05732L4.94255 3.99999C4.81753 3.875 4.64799 3.80479 4.47121 3.80479C4.29444 3.80479 4.1249 3.875 3.99988 3.99999C3.8749 4.125 3.80469 4.29454 3.80469 4.47132C3.80469 4.64809 3.8749 4.81763 3.99988 4.94265L7.05721 7.99999L3.99988 11.0573C3.8749 11.1823 3.80469 11.3519 3.80469 11.5287C3.80469 11.7054 3.8749 11.875 3.99988 12C4.1249 12.125 4.29444 12.1952 4.47121 12.1952C4.64799 12.1952 4.81753 12.125 4.94255 12L7.99988 8.94265L11.0572 12C11.1822 12.125 11.3518 12.1952 11.5285 12.1952C11.7053 12.1952 11.8749 12.125 11.9999 12C12.1249 11.875 12.1951 11.7054 12.1951 11.5287C12.1951 11.3519 12.1249 11.1823 11.9999 11.0573L8.94254 7.99999L11.9999 4.94265C12.1249 4.81763 12.1951 4.64809 12.1951 4.47132C12.1951 4.29454 12.1249 4.125 11.9999 3.99999Z" fill="black"/>
</svg>
