<svg width="16" height="16" viewBox="0 0 16 16" fill="none" xmlns="http://www.w3.org/2000/svg">
<g id="fi-rr-share" clip-path="url(#clip0_2962_10109)">
<path id="Vector" d="M12.8888 9.77835C12.3847 9.77876 11.8883 9.90181 11.4425 10.1369C10.9966 10.372 10.6146 10.712 10.3295 11.1277L5.99012 9.16835C6.29833 8.4241 6.29952 7.58814 5.99345 6.84301L10.3268 4.87368C10.7494 5.48485 11.377 5.92432 12.0958 6.11238C12.8147 6.30043 13.5771 6.22462 14.2449 5.89868C14.9126 5.57275 15.4414 5.01828 15.7353 4.33586C16.0293 3.65344 16.0689 2.88826 15.847 2.17913C15.6251 1.47 15.1564 0.863879 14.5259 0.470718C13.8954 0.0775574 13.1449 -0.0766036 12.4105 0.0361988C11.6761 0.149001 11.0064 0.521295 10.5229 1.08555C10.0395 1.6498 9.7743 2.36865 9.77545 3.11168C9.77828 3.28755 9.79612 3.46285 9.82878 3.63568L5.22212 5.72901C4.77968 5.31449 4.22579 5.03824 3.6285 4.93419C3.03121 4.83014 2.41654 4.90283 1.85999 5.14332C1.30344 5.38381 0.829268 5.78164 0.495715 6.28792C0.162163 6.79421 -0.0162385 7.3869 -0.0175706 7.99318C-0.0189027 8.59946 0.156892 9.19293 0.488217 9.70068C0.819542 10.2084 1.29197 10.6083 1.84745 10.8513C2.40293 11.0942 3.01728 11.1696 3.61502 11.0682C4.21276 10.9667 4.76786 10.6929 5.21212 10.2803L9.83078 12.3657C9.7987 12.5384 9.78109 12.7134 9.77812 12.889C9.77799 13.5044 9.96037 14.1061 10.3022 14.6178C10.644 15.1296 11.1299 15.5285 11.6985 15.7641C12.267 15.9996 12.8927 16.0613 13.4963 15.9413C14.0999 15.8212 14.6543 15.5249 15.0895 15.0897C15.5247 14.6546 15.821 14.1001 15.941 13.4965C16.0611 12.8929 15.9994 12.2673 15.7638 11.6987C15.5282 11.1302 15.1294 10.6443 14.6176 10.3024C14.1058 9.9606 13.5042 9.77822 12.8888 9.77835ZM12.8888 1.33368C13.2405 1.33355 13.5843 1.43772 13.8768 1.633C14.1692 1.82829 14.3972 2.10593 14.5319 2.43081C14.6666 2.75568 14.7019 3.1132 14.6334 3.45814C14.5648 3.80309 14.3956 4.11996 14.1469 4.36868C13.8983 4.61741 13.5815 4.78681 13.2366 4.85547C12.8917 4.92413 12.5341 4.88896 12.2092 4.7544C11.8843 4.61985 11.6065 4.39196 11.4111 4.09956C11.2157 3.80715 11.1115 3.46337 11.1115 3.11168C11.1118 2.64035 11.2992 2.18842 11.6324 1.85507C11.9656 1.52173 12.4175 1.33421 12.8888 1.33368ZM3.11145 9.77835C2.75977 9.77848 2.41594 9.67431 2.12347 9.47902C1.83099 9.28374 1.60299 9.0061 1.46832 8.68122C1.33364 8.35635 1.29834 7.99883 1.36687 7.65389C1.4354 7.30894 1.60468 6.99207 1.85331 6.74335C2.10194 6.49462 2.41875 6.32522 2.76367 6.25656C3.10859 6.1879 3.46612 6.22307 3.79104 6.35763C4.11597 6.49218 4.39369 6.72007 4.58909 7.01248C4.78449 7.30488 4.88878 7.64866 4.88878 8.00035C4.88826 8.47163 4.70085 8.92346 4.36767 9.25676C4.03449 9.59007 3.58273 9.77764 3.11145 9.77835ZM12.8888 14.667C12.5371 14.667 12.1934 14.5627 11.901 14.3674C11.6086 14.172 11.3807 13.8943 11.2461 13.5694C11.1116 13.2445 11.0763 12.887 11.1449 12.5421C11.2136 12.1972 11.3829 11.8804 11.6315 11.6318C11.8802 11.3831 12.197 11.2138 12.5419 11.1452C12.8868 11.0766 13.2443 11.1118 13.5692 11.2464C13.8941 11.3809 14.1718 11.6088 14.3671 11.9012C14.5625 12.1936 14.6668 12.5374 14.6668 12.889C14.6664 13.3605 14.479 13.8125 14.1456 14.1459C13.8123 14.4792 13.3602 14.6667 12.8888 14.667Z" fill="white"/>
</g>
<defs>
<clipPath id="clip0_2962_10109">
<rect width="16" height="16" fill="white"/>
</clipPath>
</defs>
</svg>
