<svg width="32" height="32" viewBox="0 0 32 32" fill="none" xmlns="http://www.w3.org/2000/svg">
<path d="M15.9593 29.3332C23.3231 29.3332 29.2926 23.3636 29.2926 15.9998C29.2926 8.63604 23.3231 2.6665 15.9593 2.6665C8.59551 2.6665 2.62598 8.63604 2.62598 15.9998C2.62598 23.3636 8.59551 29.3332 15.9593 29.3332Z" stroke="white" stroke-width="1.5" stroke-linecap="round" stroke-linejoin="round"/>
<path d="M14.2937 19.3729V12.6262C14.2937 11.9862 14.027 11.7329 13.347 11.7329H11.6137C10.9337 11.7329 10.667 11.9862 10.667 12.6262V19.3729C10.667 20.0129 10.9337 20.2662 11.6137 20.2662H13.3337C14.027 20.2662 14.2937 20.0129 14.2937 19.3729Z" stroke="white" stroke-width="1.5" stroke-linecap="round" stroke-linejoin="round"/>
<path d="M21.3331 19.3729V12.6262C21.3331 11.9862 21.0664 11.7329 20.3864 11.7329H18.6664C17.9864 11.7329 17.7197 11.9862 17.7197 12.6262V19.3729C17.7197 20.0129 17.9864 20.2662 18.6664 20.2662H20.3864C21.0664 20.2662 21.3331 20.0129 21.3331 19.3729Z" stroke="white" stroke-width="1.5" stroke-linecap="round" stroke-linejoin="round"/>
</svg>
