<svg width="16" height="16" viewBox="0 0 16 16" fill="none" xmlns="http://www.w3.org/2000/svg">
<circle cx="8" cy="8" r="8" fill="black"/>
<path d="M10.6666 5.33325C10.5832 5.24993 10.4702 5.20312 10.3524 5.20312C10.2345 5.20312 10.1215 5.24993 10.0381 5.33325L7.99992 7.37147L5.9617 5.33325C5.87835 5.24993 5.76533 5.20312 5.64747 5.20312C5.52962 5.20312 5.4166 5.24993 5.33325 5.33325C5.24993 5.4166 5.20312 5.52962 5.20312 5.64747C5.20312 5.76533 5.24993 5.87835 5.33325 5.9617L7.37147 7.99992L5.33325 10.0381C5.24993 10.1215 5.20312 10.2345 5.20312 10.3524C5.20312 10.4702 5.24993 10.5832 5.33325 10.6666C5.4166 10.7499 5.52962 10.7967 5.64747 10.7967C5.76533 10.7967 5.87835 10.7499 5.9617 10.6666L7.99992 8.62836L10.0381 10.6666C10.1215 10.7499 10.2345 10.7967 10.3524 10.7967C10.4702 10.7967 10.5832 10.7499 10.6666 10.6666C10.7499 10.5832 10.7967 10.4702 10.7967 10.3524C10.7967 10.2345 10.7499 10.1215 10.6666 10.0381L8.62836 7.99992L10.6666 5.9617C10.7499 5.87835 10.7967 5.76533 10.7967 5.64747C10.7967 5.52962 10.7499 5.4166 10.6666 5.33325Z" fill="white"/>
</svg>
