<svg width="24" height="24" viewBox="0 0 24 24" fill="none" xmlns="http://www.w3.org/2000/svg">
<g clip-path="url(#clip0_2815_752)">
<path d="M16.2857 2.57141H18.8572C19.3118 2.57141 19.7479 2.75202 20.0693 3.07351C20.3908 3.395 20.5714 3.83104 20.5714 4.2857V21.4286C20.5714 21.8832 20.3908 22.3192 20.0693 22.6407C19.7479 22.9622 19.3118 23.1428 18.8572 23.1428H5.14287C4.68822 23.1428 4.25218 22.9622 3.93069 22.6407C3.6092 22.3192 3.42859 21.8832 3.42859 21.4286V4.2857C3.42859 3.83104 3.6092 3.395 3.93069 3.07351C4.25218 2.75202 4.68822 2.57141 5.14287 2.57141H7.7143" stroke="#000001" stroke-width="2" stroke-linecap="round" stroke-linejoin="round"/>
<path d="M14.5715 0.857178H9.42864C8.48187 0.857178 7.71436 1.62469 7.71436 2.57146V3.42861C7.71436 4.37538 8.48187 5.14289 9.42864 5.14289H14.5715C15.5183 5.14289 16.2858 4.37538 16.2858 3.42861V2.57146C16.2858 1.62469 15.5183 0.857178 14.5715 0.857178Z" stroke="#000001" stroke-width="2" stroke-linecap="round" stroke-linejoin="round"/>
<path d="M7 9H15" stroke="#000001" stroke-width="2" stroke-linecap="round" stroke-linejoin="round"/>
<path d="M7 13H15" stroke="#4E2AF4" stroke-width="2" stroke-linecap="round" stroke-linejoin="round"/>
<path d="M7 17H11" stroke="#4E2AF4" stroke-width="2" stroke-linecap="round" stroke-linejoin="round"/>
<path d="M18 18C18 19.1046 17.1046 20 16 20C14.8954 20 14 19.1046 14 18C14 16.8954 14.8954 16 16 16C17.1046 16 18 16.8954 18 18Z" fill="#4E2AF4"/>
</g>
<defs>
<clipPath id="clip0_2815_752">
<rect width="24" height="24" fill="white"/>
</clipPath>
</defs>
</svg>
