<svg width="18" height="18" viewBox="0 0 18 18" fill="none" xmlns="http://www.w3.org/2000/svg">
<g id="fi-rr-headphones">
<path id="Vector" d="M15.75 9.31777V8.24977C15.75 6.45956 15.0389 4.74267 13.773 3.4768C12.5071 2.21093 10.7902 1.49977 9.00002 1.49977C7.20981 1.49977 5.49292 2.21093 4.22705 3.4768C2.96118 4.74267 2.25002 6.45956 2.25002 8.24977V9.31777C1.46339 9.66415 0.819624 10.2702 0.42649 11.0346C0.033356 11.7989 -0.0852803 12.6751 0.0904422 13.5165C0.266165 14.3578 0.72558 15.1133 1.39178 15.6564C2.05797 16.1994 2.89051 16.4972 3.75002 16.4998C4.14785 16.4998 4.52938 16.3417 4.81068 16.0604C5.09199 15.7791 5.25002 15.3976 5.25002 14.9998V10.4998C5.25002 10.1019 5.09199 9.72042 4.81068 9.43911C4.52938 9.15781 4.14785 8.99977 3.75002 8.99977V8.24977C3.75002 6.85738 4.30315 5.52203 5.28771 4.53746C6.27228 3.55289 7.60764 2.99977 9.00002 2.99977C10.3924 2.99977 11.7278 3.55289 12.7123 4.53746C13.6969 5.52203 14.25 6.85738 14.25 8.24977V8.99977C13.8522 8.99977 13.4707 9.15781 13.1894 9.43911C12.9081 9.72042 12.75 10.1019 12.75 10.4998V14.9998C12.75 15.3976 12.9081 15.7791 13.1894 16.0604C13.4707 16.3417 13.8522 16.4998 14.25 16.4998C15.1095 16.4972 15.9421 16.1994 16.6083 15.6564C17.2745 15.1133 17.7339 14.3578 17.9096 13.5165C18.0853 12.6751 17.9667 11.7989 17.5736 11.0346C17.1804 10.2702 16.5367 9.66415 15.75 9.31777ZM3.75002 14.9998C3.15329 14.9998 2.58099 14.7627 2.15903 14.3408C1.73708 13.9188 1.50002 13.3465 1.50002 12.7498C1.50002 12.153 1.73708 11.5807 2.15903 11.1588C2.58099 10.7368 3.15329 10.4998 3.75002 10.4998V14.9998ZM14.25 14.9998V10.4998C14.8468 10.4998 15.4191 10.7368 15.841 11.1588C16.263 11.5807 16.5 12.153 16.5 12.7498C16.5 13.3465 16.263 13.9188 15.841 14.3408C15.4191 14.7627 14.8468 14.9998 14.25 14.9998Z" fill="white"/>
</g>
</svg>
