<svg width="12" height="12" viewBox="0 0 12 12" fill="none" xmlns="http://www.w3.org/2000/svg">
<path d="M5.91238 10.2275L3.60045 11.4429C3.02973 11.743 2.36268 11.2583 2.47167 10.6228L2.91322 8.04845C2.9565 7.7961 2.87283 7.53858 2.68947 7.35985L0.819103 5.53668C0.357365 5.0866 0.612149 4.30245 1.25026 4.20972L3.83505 3.83413C4.08845 3.79731 4.30749 3.63816 4.42081 3.40854L5.57678 1.06631C5.86215 0.488099 6.68665 0.488099 6.97204 1.06631L8.12798 3.40854C8.2413 3.63816 8.46034 3.79731 8.71374 3.83413L11.2986 4.20972C11.9366 4.30245 12.1915 5.0866 11.7297 5.53668L9.85932 7.35985C9.67596 7.53858 9.59229 7.7961 9.63559 8.04845L10.0771 10.6228C10.1861 11.2583 9.51907 11.743 8.94834 11.4429L6.63641 10.2275C6.40978 10.1083 6.13901 10.1083 5.91238 10.2275Z" fill="#CDFE6D"/>
</svg>
