<svg width="40" height="40" viewBox="0 0 40 40" fill="none" xmlns="http://www.w3.org/2000/svg">
<circle cx="20" cy="20" r="20" fill="white"/>
<path d="M8.88845 24.2866L18.738 33.5392C19.0773 33.8579 19.2469 34.0173 19.4469 34.0566C19.537 34.0742 19.6297 34.0742 19.7197 34.0566C19.9198 34.0173 20.0894 33.8579 20.4287 33.5392L30.2782 24.2866C33.0495 21.6833 33.386 17.3994 31.0552 14.3953L30.617 13.8304C27.8287 10.2367 22.232 10.8394 20.2728 14.9443C19.996 15.5242 19.1706 15.5242 18.8939 14.9443C16.9347 10.8394 11.3379 10.2367 8.54969 13.8304L8.11144 14.3953C5.78068 17.3994 6.1172 21.6833 8.88845 24.2866Z" fill="#E4E7EC"/>
</svg>
