<svg width="15" height="14" viewBox="0 0 15 14" fill="none" xmlns="http://www.w3.org/2000/svg">
<path d="M8.35883 1.23139L9.959 4.46192C9.99539 4.54392 10.0526 4.61494 10.125 4.66791C10.1974 4.72089 10.2825 4.75396 10.3716 4.76384L13.9041 5.28716C14.0064 5.30031 14.1028 5.34229 14.1821 5.40819C14.2614 5.47409 14.3203 5.5612 14.352 5.65934C14.3837 5.75748 14.3867 5.86261 14.3609 5.96244C14.335 6.06227 14.2813 6.15268 14.206 6.22311L11.6598 8.74917C11.5948 8.80988 11.5461 8.88588 11.5179 8.97025C11.4898 9.05462 11.4832 9.14468 11.4988 9.23224L12.1127 12.7848C12.1305 12.8869 12.1192 12.9919 12.0803 13.0879C12.0413 13.1839 11.9762 13.2671 11.8923 13.3279C11.8084 13.3887 11.7091 13.4248 11.6057 13.432C11.5024 13.4391 11.3991 13.4172 11.3076 13.3685L8.12736 11.6878C8.04593 11.6479 7.95641 11.6271 7.8657 11.6271C7.77498 11.6271 7.68547 11.6479 7.60403 11.6878L4.42382 13.3685C4.33233 13.4172 4.22902 13.4391 4.12565 13.432C4.02228 13.4248 3.92301 13.3887 3.83912 13.3279C3.75523 13.2671 3.6901 13.1839 3.65113 13.0879C3.61216 12.9919 3.60093 12.8869 3.6187 12.7848L4.2326 9.19198C4.24816 9.10442 4.24158 9.01436 4.21346 8.92999C4.18534 8.84562 4.13656 8.76963 4.07158 8.70891L1.49521 6.22311C1.41898 6.15075 1.36538 6.05784 1.34089 5.95563C1.3164 5.85342 1.32207 5.7463 1.35722 5.64725C1.39236 5.5482 1.45548 5.46147 1.53891 5.39756C1.62235 5.33365 1.72253 5.2953 1.82732 5.28716L5.35977 4.76384C5.44893 4.75396 5.53395 4.72089 5.60635 4.66791C5.67875 4.61494 5.736 4.54392 5.77239 4.46192L7.37256 1.23139C7.41614 1.1373 7.48572 1.05764 7.5731 1.00181C7.66048 0.945985 7.76201 0.916321 7.8657 0.916321C7.96939 0.916321 8.07091 0.945985 8.15829 1.00181C8.24567 1.05764 8.31525 1.1373 8.35883 1.23139Z" fill="#B5FA95" stroke="#B5FA95" stroke-width="0.880597" stroke-linecap="round" stroke-linejoin="round"/>
</svg>
