<svg width="16" height="16" viewBox="0 0 16 16" fill="none" xmlns="http://www.w3.org/2000/svg">
<g clip-path="url(#clip0_940_1532)">
<path d="M8.55976 1.24583L10.3769 4.91441C10.4182 5.00752 10.4832 5.08817 10.5655 5.14833C10.6477 5.20849 10.7442 5.24605 10.8455 5.25726L14.8569 5.85155C14.9731 5.86648 15.0826 5.91414 15.1726 5.98898C15.2627 6.06382 15.3296 6.16274 15.3656 6.27419C15.4015 6.38564 15.405 6.50502 15.3757 6.61838C15.3463 6.73175 15.2853 6.83442 15.1998 6.9144L12.3083 9.78298C12.2345 9.85192 12.1792 9.93822 12.1472 10.034C12.1153 10.1298 12.1078 10.2321 12.1255 10.3315L12.8226 14.3658C12.8428 14.4818 12.83 14.601 12.7858 14.71C12.7415 14.8191 12.6676 14.9135 12.5723 14.9826C12.477 15.0516 12.3643 15.0926 12.2469 15.1007C12.1295 15.1089 12.0122 15.0839 11.9083 15.0287L8.2969 13.1201C8.20443 13.0747 8.10278 13.0511 7.99976 13.0511C7.89674 13.0511 7.79509 13.0747 7.70262 13.1201L4.09119 15.0287C3.98729 15.0839 3.86997 15.1089 3.75259 15.1007C3.63521 15.0926 3.52247 15.0516 3.4272 14.9826C3.33194 14.9135 3.25798 14.8191 3.21373 14.71C3.16948 14.601 3.15672 14.4818 3.1769 14.3658L3.87404 10.2858C3.89171 10.1864 3.88424 10.0841 3.8523 9.98832C3.82037 9.89251 3.76498 9.80621 3.69119 9.73726L0.765473 6.9144C0.678916 6.83223 0.618044 6.72672 0.590232 6.61065C0.56242 6.49458 0.56886 6.37294 0.608773 6.26046C0.648685 6.14798 0.720358 6.04948 0.815108 5.97691C0.909859 5.90433 1.02362 5.86079 1.14262 5.85155L5.15404 5.25726C5.2553 5.24605 5.35185 5.20849 5.43406 5.14833C5.51628 5.08817 5.58129 5.00752 5.62262 4.91441L7.43976 1.24583C7.48924 1.13899 7.56826 1.04853 7.66749 0.985129C7.76672 0.921733 7.88201 0.888046 7.99976 0.888046C8.11751 0.888046 8.2328 0.921733 8.33203 0.985129C8.43125 1.04853 8.51027 1.13899 8.55976 1.24583V1.24583Z" stroke="white" stroke-linecap="round" stroke-linejoin="round"/>
</g>
<defs>
<clipPath id="clip0_940_1532">
<rect width="16" height="16" fill="white"/>
</clipPath>
</defs>
</svg>
