<svg width="16" height="16" viewBox="0 0 16 16" fill="none" xmlns="http://www.w3.org/2000/svg">
<path d="M5.33317 1.3335H10.6665C13.3332 1.3335 14.6665 2.66683 14.6665 5.3335V14.0002C14.6665 14.3668 14.3665 14.6668 13.9998 14.6668H5.33317C2.6665 14.6668 1.33317 13.3335 1.33317 10.6668V5.3335C1.33317 2.66683 2.6665 1.3335 5.33317 1.3335Z" stroke="#3A3A3A" stroke-width="1.5" stroke-linecap="round" stroke-linejoin="round"/>
<path d="M7.39363 5.22677L10.8536 8.68677C10.987 8.8201 11.1136 9.0801 11.1403 9.26677L11.327 10.5868C11.3936 11.0668 11.0603 11.4001 10.5803 11.3334L9.26031 11.1468C9.07365 11.1201 8.81363 10.9934 8.6803 10.8601L5.22029 7.4001C4.62696 6.80677 4.34029 6.11343 5.22029 5.23343C6.10029 4.34677 6.79363 4.62677 7.39363 5.22677Z" stroke="#4E2AF4" stroke-width="1.5" stroke-miterlimit="10" stroke-linecap="round" stroke-linejoin="round"/>
<path d="M7.88672 5.72021C7.59339 6.76688 6.77339 7.59355 5.72005 7.88688" stroke="#4E2AF4" stroke-width="1.5" stroke-miterlimit="10" stroke-linecap="round" stroke-linejoin="round"/>
</svg>
