<svg width="16" height="16" viewBox="0 0 16 16" fill="none" xmlns="http://www.w3.org/2000/svg">
<path d="M12.473 5.47334C12.4111 5.41085 12.3373 5.36126 12.2561 5.32741C12.1749 5.29356 12.0877 5.27614 11.9997 5.27614C11.9117 5.27614 11.8246 5.29356 11.7433 5.32741C11.6621 5.36126 11.5884 5.41085 11.5264 5.47334L8.47305 8.52666C8.41107 8.58915 8.33734 8.63875 8.2561 8.67259C8.17486 8.70644 8.08772 8.72386 7.99971 8.72386C7.91171 8.72386 7.82457 8.70644 7.74333 8.67259C7.66209 8.63875 7.58836 8.58915 7.52638 8.52666L4.47305 5.47334C4.41107 5.41085 4.33734 5.36126 4.2561 5.32741C4.17486 5.29356 4.08772 5.27614 3.99971 5.27614C3.91171 5.27614 3.82457 5.29356 3.74333 5.32741C3.66209 5.36126 3.58836 5.41085 3.52638 5.47334C3.40221 5.59824 3.33252 5.76721 3.33252 5.94334C3.33252 6.11946 3.40221 6.28843 3.52638 6.41333L6.58638 9.47333C6.96138 9.84786 7.46971 10.0582 7.99971 10.0582C8.52972 10.0582 9.03805 9.84786 9.41305 9.47333L12.473 6.41333C12.5972 6.28843 12.6669 6.11946 12.6669 5.94334C12.6669 5.76721 12.5972 5.59824 12.473 5.47334Z" fill="black"/>
</svg>
