<svg width="40" height="40" viewBox="0 0 40 40" fill="none" xmlns="http://www.w3.org/2000/svg">
<circle cx="20" cy="20" r="20" fill="#E4E7EC"/>
<path d="M10.2774 22.4575L19.2315 30.869C19.4976 31.119 19.6307 31.244 19.7817 31.2929C19.9236 31.3389 20.0764 31.3389 20.2183 31.2929C20.3693 31.244 20.5023 31.119 20.7685 30.869L29.7226 22.4575C32.2419 20.0909 32.5478 16.1964 30.429 13.4654L30.0306 12.9519C27.4958 9.68482 22.4078 10.2327 20.6267 13.9645C20.3752 14.4917 19.6248 14.4917 19.3732 13.9645C17.5921 10.2327 12.5042 9.68482 9.96939 12.9519L9.57098 13.4654C7.45211 16.1964 7.75805 20.0909 10.2774 22.4575Z" fill="#E4E7EC" stroke="white" stroke-width="1.41667"/>
</svg>
