<svg width="24" height="24" viewBox="0 0 24 24" fill="none" xmlns="http://www.w3.org/2000/svg">
<rect width="24" height="24" fill="white"/>
<g clip-path="url(#clip0_1765_24812)">
<path d="M10.9386 15.061C11.0779 15.2004 11.2433 15.311 11.4254 15.3864C11.6074 15.4619 11.8026 15.5007 11.9996 15.5007C12.1967 15.5007 12.3918 15.4619 12.5739 15.3864C12.7559 15.311 12.9213 15.2004 13.0606 15.061L14.6661 13.4555C14.7522 13.3603 14.7984 13.2356 14.7951 13.1073C14.7918 12.979 14.7393 12.8569 14.6484 12.7662C14.5576 12.6756 14.4353 12.6233 14.307 12.6203C14.1787 12.6173 14.0541 12.6637 13.9591 12.75L12.4961 14.2135L12.4996 6.5C12.4996 6.36739 12.4469 6.24021 12.3532 6.14645C12.2594 6.05268 12.1322 6 11.9996 6V6C11.867 6 11.7398 6.05268 11.6461 6.14645C11.5523 6.24021 11.4996 6.36739 11.4996 6.5L11.4951 14.204L10.0401 12.75C9.9463 12.6562 9.81908 12.6036 9.68645 12.6036C9.55381 12.6037 9.42663 12.6564 9.33287 12.7503C9.23912 12.8441 9.18648 12.9713 9.18652 13.1039C9.18657 13.2366 9.2393 13.3637 9.33312 13.4575L10.9386 15.061Z" fill="black"/>
<path d="M17.5 14C17.3674 14 17.2402 14.0527 17.1464 14.1464C17.0527 14.2402 17 14.3674 17 14.5V16.5C17 16.6326 16.9473 16.7598 16.8536 16.8535C16.7598 16.9473 16.6326 17 16.5 17H7.5C7.36739 17 7.24021 16.9473 7.14645 16.8535C7.05268 16.7598 7 16.6326 7 16.5V14.5C7 14.3674 6.94732 14.2402 6.85355 14.1464C6.75979 14.0527 6.63261 14 6.5 14C6.36739 14 6.24021 14.0527 6.14645 14.1464C6.05268 14.2402 6 14.3674 6 14.5V16.5C6 16.8978 6.15804 17.2793 6.43934 17.5607C6.72064 17.842 7.10218 18 7.5 18H16.5C16.8978 18 17.2794 17.842 17.5607 17.5607C17.842 17.2793 18 16.8978 18 16.5V14.5C18 14.3674 17.9473 14.2402 17.8536 14.1464C17.7598 14.0527 17.6326 14 17.5 14Z" fill="black"/>
</g>
<defs>
<clipPath id="clip0_1765_24812">
<rect width="12" height="12" fill="white" transform="translate(6 6)"/>
</clipPath>
</defs>
</svg>
