<svg width="12" height="12" viewBox="0 0 12 12" fill="none" xmlns="http://www.w3.org/2000/svg">
<g clip-path="url(#clip0_1783_25881)">
<path d="M11.8534 0.146882C11.7596 0.053146 11.6325 0.000488281 11.4999 0.000488281C11.3673 0.000488281 11.2402 0.053146 11.1464 0.146882L5.99989 5.29338L0.853393 0.146882C0.759629 0.053146 0.632475 0.000488281 0.499893 0.000488281C0.367311 0.000488281 0.240157 0.053146 0.146393 0.146882C0.0526577 0.240645 0 0.367799 0 0.500381C0 0.632964 0.0526577 0.760118 0.146393 0.853882L5.29289 6.00038L0.146393 11.1469C0.0526577 11.2406 0 11.3678 0 11.5004C0 11.633 0.0526577 11.7601 0.146393 11.8539C0.240157 11.9476 0.367311 12.0003 0.499893 12.0003C0.632475 12.0003 0.759629 11.9476 0.853393 11.8539L5.99989 6.70738L11.1464 11.8539C11.2402 11.9476 11.3673 12.0003 11.4999 12.0003C11.6325 12.0003 11.7596 11.9476 11.8534 11.8539C11.9471 11.7601 11.9998 11.633 11.9998 11.5004C11.9998 11.3678 11.9471 11.2406 11.8534 11.1469L6.70689 6.00038L11.8534 0.853882C11.9471 0.760118 11.9998 0.632964 11.9998 0.500381C11.9998 0.367799 11.9471 0.240645 11.8534 0.146882Z" fill="white"/>
</g>
<defs>
<clipPath id="clip0_1783_25881">
<rect width="12" height="12" fill="white"/>
</clipPath>
</defs>
</svg>
