<svg width="28" height="28" viewBox="0 0 28 28" fill="none" xmlns="http://www.w3.org/2000/svg">
<circle cx="14" cy="14" r="14" fill="#B25BFF"/>
<circle cx="14" cy="10" r="2.5" stroke="white" stroke-linecap="round"/>
<path d="M15.7679 8.5C15.9657 8.15743 16.2607 7.88121 16.6154 7.70625C16.9702 7.5313 17.3689 7.46548 17.7611 7.51711C18.1532 7.56874 18.5213 7.73551 18.8187 7.99632C19.1161 8.25713 19.3295 8.60028 19.4319 8.98236C19.5342 9.36445 19.521 9.76831 19.3939 10.1429C19.2667 10.5174 19.0313 10.8459 18.7175 11.0867C18.4037 11.3275 18.0255 11.4698 17.6308 11.4957C17.2361 11.5216 16.8426 11.4298 16.5 11.2321" stroke="white"/>
<path d="M12.2321 8.5C12.0343 8.15743 11.7393 7.88121 11.3846 7.70625C11.0298 7.5313 10.6311 7.46548 10.2389 7.51711C9.84677 7.56874 9.47871 7.73551 9.18131 7.99632C8.88391 8.25713 8.67053 8.60028 8.56815 8.98236C8.46577 9.36445 8.47899 9.76831 8.60614 10.1429C8.73329 10.5174 8.96866 10.8459 9.28248 11.0867C9.5963 11.3275 9.97448 11.4698 10.3692 11.4957C10.7639 11.5216 11.1574 11.4298 11.5 11.2321" stroke="white"/>
<path d="M14 14.5C18.0802 14.5 19.1335 17.8022 19.4054 19.507C19.4924 20.0524 19.0523 20.5 18.5 20.5H9.5C8.94771 20.5 8.50763 20.0524 8.59461 19.507C8.86649 17.8022 9.91976 14.5 14 14.5Z" stroke="white" stroke-linecap="round"/>
<path d="M21.2965 17.4162L20.8115 17.5377L21.2965 17.4162ZM15.0871 14.5859L14.7179 14.2488L14.0974 14.9283L15.0051 15.0791L15.0871 14.5859ZM19.1813 18.5L18.701 18.639L18.8055 19H19.1813V18.5ZM17.5 14C18.5277 14 19.2495 14.5027 19.7783 15.2069C20.3177 15.9253 20.6344 16.8306 20.8115 17.5377L21.7816 17.2948C21.5904 16.5315 21.2329 15.4787 20.578 14.6065C19.9126 13.7203 18.9202 13 17.5 13V14ZM15.4563 14.923C15.9567 14.375 16.6107 14 17.5 14V13C16.2828 13 15.3736 13.5306 14.7179 14.2488L15.4563 14.923ZM15.0051 15.0791C17.3056 15.4614 18.2789 17.1801 18.701 18.639L19.6616 18.361C19.1905 16.7326 18.019 14.5663 15.1691 14.0927L15.0051 15.0791ZM20.395 18H19.1813V19H20.395V18ZM20.8115 17.5377C20.8653 17.7526 20.7075 18 20.395 18V19C21.2657 19 22.0152 18.2277 21.7816 17.2948L20.8115 17.5377Z" fill="white"/>
<path d="M12.9129 14.5859L12.9949 15.0791L13.9026 14.9283L13.2822 14.2488L12.9129 14.5859ZM6.70346 17.4162L7.18848 17.5377L6.70346 17.4162ZM8.81871 18.5V19H9.19456L9.29901 18.639L8.81871 18.5ZM10.5 14C11.3893 14 12.0433 14.375 12.5437 14.923L13.2822 14.2488C12.6265 13.5306 11.7173 13 10.5 13V14ZM7.18848 17.5377C7.36557 16.8306 7.68231 15.9253 8.2217 15.2069C8.75051 14.5027 9.47229 14 10.5 14V13C9.07983 13 8.08746 13.7203 7.42202 14.6065C6.76716 15.4787 6.40958 16.5315 6.21844 17.2948L7.18848 17.5377ZM7.60501 18C7.2925 18 7.13468 17.7526 7.18848 17.5377L6.21844 17.2948C5.9848 18.2277 6.73427 19 7.60501 19V18ZM8.81871 18H7.60501V19H8.81871V18ZM9.29901 18.639C9.72107 17.1801 10.6944 15.4614 12.9949 15.0791L12.831 14.0927C9.98104 14.5663 8.80953 16.7326 8.33841 18.361L9.29901 18.639Z" fill="white"/>
</svg>
