<svg width="16" height="16" viewBox="0 0 16 16" fill="none" xmlns="http://www.w3.org/2000/svg">
<g clip-path="url(#clip0_1099_2066)">
<path d="M4.11429 8.26947C4.44708 8.26947 4.71686 7.99969 4.71686 7.6669C4.71686 7.33411 4.44708 7.06433 4.11429 7.06433C3.7815 7.06433 3.51172 7.33411 3.51172 7.6669C3.51172 7.99969 3.7815 8.26947 4.11429 8.26947Z" stroke="#000001" stroke-linecap="round" stroke-linejoin="round"/>
<path d="M8.03226 8.26947C8.36505 8.26947 8.63483 7.99969 8.63483 7.6669C8.63483 7.33411 8.36505 7.06433 8.03226 7.06433C7.69947 7.06433 7.42969 7.33411 7.42969 7.6669C7.42969 7.99969 7.69947 8.26947 8.03226 8.26947Z" stroke="#000001" stroke-linecap="round" stroke-linejoin="round"/>
<path d="M11.9483 8.26947C12.2811 8.26947 12.5508 7.99969 12.5508 7.6669C12.5508 7.33411 12.2811 7.06433 11.9483 7.06433C11.6155 7.06433 11.3457 7.33411 11.3457 7.6669C11.3457 7.99969 11.6155 8.26947 11.9483 8.26947Z" stroke="#000001" stroke-linecap="round" stroke-linejoin="round"/>
<path d="M7.99793 1C6.73211 1.0004 5.49009 1.34423 4.40416 1.99488C3.31824 2.64553 2.42908 3.57862 1.83139 4.69479C1.2337 5.81095 0.949864 7.06838 1.01011 8.33315C1.07035 9.59792 1.47243 10.8227 2.1735 11.8769L1 15L4.92961 14.2892C5.87585 14.7518 6.91425 14.9947 7.96741 14.9999C9.02057 15.0051 10.0613 14.7725 11.0121 14.3194C11.9629 13.8662 12.7991 13.2043 13.4585 12.3828C14.118 11.5614 14.5835 10.6017 14.8205 9.57523C15.0575 8.54876 15.0598 7.48203 14.8273 6.45454C14.5948 5.42705 14.1334 4.46531 13.4776 3.64101C12.8218 2.81671 11.9884 2.15111 11.0396 1.69383C10.0908 1.23655 9.05111 0.999379 7.99793 1V1Z" stroke="#000001" stroke-width="2" stroke-linecap="round" stroke-linejoin="round"/>
</g>
<defs>
<clipPath id="clip0_1099_2066">
<rect width="16" height="16" fill="white"/>
</clipPath>
</defs>
</svg>
