<svg width="16" height="16" viewBox="0 0 16 16" fill="none" xmlns="http://www.w3.org/2000/svg">
<g id="fi-rr-comment" clip-path="url(#clip0_2811_7298)">
<path id="Vector" d="M15.9998 7.49813C15.9034 5.93815 15.3525 4.44047 14.4152 3.18975C13.4779 1.93902 12.1951 0.989927 10.7249 0.459462C9.25473 -0.0710035 7.66144 -0.159646 6.14148 0.204462C4.62152 0.56857 3.24134 1.36951 2.17108 2.50854C1.10082 3.64758 0.38727 5.07491 0.118404 6.61457C-0.150462 8.15423 0.0371069 9.73892 0.657987 11.1733C1.27887 12.6076 2.30591 13.8289 3.61251 14.6866C4.91911 15.5443 6.44815 16.0009 8.01111 16.0001H12.6664C13.5502 15.9993 14.3976 15.6478 15.0225 15.0228C15.6474 14.3979 15.9989 13.5506 15.9998 12.6668V7.49813ZM14.6664 12.6668C14.6664 13.1972 14.4557 13.7059 14.0807 14.081C13.7056 14.4561 13.1969 14.6668 12.6664 14.6668H8.01111C7.0704 14.6664 6.14034 14.4677 5.28157 14.0837C4.42281 13.6997 3.65463 13.139 3.02711 12.4381C2.39656 11.7376 1.92306 10.9104 1.63837 10.012C1.35368 9.11353 1.26437 8.16459 1.37644 7.2288C1.5534 5.75276 2.21657 4.37759 3.2614 3.32008C4.30624 2.26257 5.67331 1.58287 7.14711 1.38813C7.4346 1.3521 7.72404 1.33384 8.01378 1.33346C9.56743 1.32923 11.073 1.87207 12.2664 2.8668C12.9635 3.44609 13.5356 4.1609 13.9481 4.96789C14.3607 5.77487 14.6051 6.65723 14.6664 7.56147V12.6668Z" fill="black"/>
<path id="Vector_2" d="M5.33366 5.99984H8.00033C8.17714 5.99984 8.34671 5.9296 8.47173 5.80457C8.59675 5.67955 8.66699 5.50998 8.66699 5.33317C8.66699 5.15636 8.59675 4.98679 8.47173 4.86177C8.34671 4.73674 8.17714 4.6665 8.00033 4.6665H5.33366C5.15685 4.6665 4.98728 4.73674 4.86225 4.86177C4.73723 4.98679 4.66699 5.15636 4.66699 5.33317C4.66699 5.50998 4.73723 5.67955 4.86225 5.80457C4.98728 5.9296 5.15685 5.99984 5.33366 5.99984Z" fill="black"/>
<path id="Vector_3" d="M10.667 7.3335H5.33366C5.15685 7.3335 4.98728 7.40373 4.86225 7.52876C4.73723 7.65378 4.66699 7.82335 4.66699 8.00017C4.66699 8.17698 4.73723 8.34655 4.86225 8.47157C4.98728 8.5966 5.15685 8.66684 5.33366 8.66684H10.667C10.8438 8.66684 11.0134 8.5966 11.1384 8.47157C11.2634 8.34655 11.3337 8.17698 11.3337 8.00017C11.3337 7.82335 11.2634 7.65378 11.1384 7.52876C11.0134 7.40373 10.8438 7.3335 10.667 7.3335Z" fill="black"/>
<path id="Vector_4" d="M10.667 10H5.33366C5.15685 10 4.98728 10.0702 4.86225 10.1953C4.73723 10.3203 4.66699 10.4899 4.66699 10.6667C4.66699 10.8435 4.73723 11.0131 4.86225 11.1381C4.98728 11.2631 5.15685 11.3333 5.33366 11.3333H10.667C10.8438 11.3333 11.0134 11.2631 11.1384 11.1381C11.2634 11.0131 11.3337 10.8435 11.3337 10.6667C11.3337 10.4899 11.2634 10.3203 11.1384 10.1953C11.0134 10.0702 10.8438 10 10.667 10Z" fill="black"/>
</g>
<defs>
<clipPath id="clip0_2811_7298">
<rect width="16" height="16" fill="white"/>
</clipPath>
</defs>
</svg>
