<svg width="16" height="16" viewBox="0 0 16 16" fill="none" xmlns="http://www.w3.org/2000/svg">
<g clip-path="url(#clip0_1118_3368)">
<path d="M13.7095 5.20093L10.7314 4.74086L9.3732 1.8815C9.25753 1.62825 9.07327 1.40784 8.83597 1.24974C8.59362 1.08828 8.30779 1 8.01251 1C7.71723 1 7.4314 1.08828 7.18906 1.24974C6.95175 1.40784 6.76748 1.62826 6.65181 1.88153L5.29359 4.74086L2.33432 5.19803C2.05329 5.22962 1.78962 5.34076 1.57172 5.51481C1.34246 5.69792 1.17447 5.94186 1.08207 6.21339C0.989756 6.48469 0.975128 6.7765 1.03916 7.05514C1.10285 7.33229 1.24297 7.58984 1.44845 7.79465L3.64706 10.0067L3.12158 13.2136C3.12147 13.2142 3.12137 13.2149 3.12126 13.2155C3.07587 13.4894 3.10466 13.7717 3.20583 14.0316C3.30733 14.2924 3.47926 14.5241 3.70751 14.6967C3.93618 14.8695 4.21122 14.9751 4.50174 14.9961C4.79175 15.0171 5.07945 14.9526 5.33132 14.8134C5.33186 14.8131 5.33239 14.8128 5.33293 14.8125L8.01251 13.3359L10.6921 14.8125C10.6927 14.8128 10.6932 14.8132 10.6938 14.8135C10.9456 14.9527 11.2333 15.0171 11.5233 14.9961C11.8138 14.9751 12.0888 14.8695 12.3175 14.6967C12.5458 14.5241 12.7177 14.2924 12.8192 14.0316C12.9204 13.7714 12.9492 13.489 12.9036 13.2148C12.9036 13.2148 12.9036 13.2148 12.9036 13.2147C12.9036 13.2144 12.9035 13.214 12.9034 13.2136L12.3777 10.041L14.5531 7.79045C14.7511 7.59253 14.8883 7.34536 14.9546 7.07875C15.0222 6.80638 15.0143 6.52005 14.9312 6.2516C14.8481 5.98294 14.6917 5.73873 14.4745 5.55057C14.26 5.36477 13.9954 5.24175 13.7095 5.20093ZM3.82647 10.187C3.82454 10.1851 3.82263 10.1832 3.82074 10.1813L3.82647 10.187Z" stroke="#000001" stroke-width="2" stroke-linecap="round" stroke-linejoin="round"/>
</g>
<defs>
<clipPath id="clip0_1118_3368">
<rect width="16" height="16" fill="white"/>
</clipPath>
</defs>
</svg>
