<svg width="28" height="28" viewBox="0 0 28 28" fill="none" xmlns="http://www.w3.org/2000/svg">
<circle cx="14" cy="14" r="14" fill="#605BFF"/>
<path d="M8 11.6667C8 10.7348 8 10.2689 8.15224 9.90132C8.35523 9.41126 8.74458 9.02192 9.23463 8.81893C9.60218 8.66669 10.0681 8.66669 11 8.66669H17C17.9319 8.66669 18.3978 8.66669 18.7654 8.81893C19.2554 9.02192 19.6448 9.41126 19.8478 9.90132C20 10.2689 20 10.7348 20 11.6667V12.1667C20 12.4428 19.7761 12.6667 19.5 12.6667H19.3333C18.597 12.6667 18 13.2636 18 14V14C18 14.7364 18.597 15.3334 19.3333 15.3334H19.5C19.7761 15.3334 20 15.5572 20 15.8334V16.3334C20 17.2652 20 17.7312 19.8478 18.0987C19.6448 18.5888 19.2554 18.9781 18.7654 19.1811C18.3978 19.3334 17.9319 19.3334 17 19.3334H11C10.0681 19.3334 9.60218 19.3334 9.23463 19.1811C8.74458 18.9781 8.35523 18.5888 8.15224 18.0987C8 17.7312 8 17.2652 8 16.3334V15.8334C8 15.5572 8.22386 15.3334 8.5 15.3334H8.66667C9.40305 15.3334 10 14.7364 10 14V14C10 13.2636 9.40305 12.6667 8.66667 12.6667H8.5C8.22386 12.6667 8 12.4428 8 12.1667V11.6667Z" stroke="white" stroke-width="0.666667"/>
<path d="M13.7045 13.1257C13.8166 12.8357 13.8726 12.6907 13.9637 12.6706C13.9876 12.6654 14.0124 12.6654 14.0363 12.6706C14.1274 12.6907 14.1834 12.8357 14.2955 13.1257C14.3592 13.2906 14.3911 13.3731 14.4507 13.4292C14.4675 13.4449 14.4856 13.4589 14.5049 13.471C14.5739 13.5141 14.6599 13.5221 14.832 13.5381C15.1233 13.5652 15.269 13.5787 15.3135 13.6649C15.3227 13.6827 15.3289 13.7021 15.332 13.7221C15.3467 13.8186 15.2396 13.9197 15.0255 14.1219L14.966 14.1781C14.8659 14.2726 14.8158 14.3199 14.7869 14.3789C14.7695 14.4143 14.7579 14.4524 14.7524 14.4917C14.7433 14.5572 14.758 14.6258 14.7873 14.7629L14.7978 14.8119C14.8503 15.0578 14.8766 15.1808 14.8438 15.2412C14.8143 15.2955 14.76 15.3303 14.7001 15.3333C14.6333 15.3366 14.5392 15.257 14.351 15.0979C14.227 14.993 14.165 14.9406 14.0962 14.9201C14.0333 14.9014 13.9666 14.9014 13.9038 14.9201C13.8349 14.9406 13.773 14.993 13.649 15.0979C13.4608 15.257 13.3667 15.3366 13.2999 15.3333C13.2399 15.3303 13.1856 15.2955 13.1562 15.2412C13.1233 15.1808 13.1496 15.0578 13.2022 14.8119L13.2127 14.7629C13.242 14.6258 13.2567 14.5572 13.2476 14.4917C13.2421 14.4524 13.2305 14.4143 13.2131 14.3789C13.1841 14.3199 13.1341 14.2726 13.034 14.1781L12.9745 14.1219C12.7603 13.9197 12.6533 13.8186 12.668 13.7221C12.6711 13.7021 12.6773 13.6827 12.6865 13.6649C12.731 13.5787 12.8767 13.5652 13.168 13.5381C13.3401 13.5221 13.4261 13.5141 13.495 13.471C13.5144 13.4589 13.5325 13.4449 13.5493 13.4292C13.6089 13.3731 13.6408 13.2906 13.7045 13.1257Z" fill="white" stroke="white" stroke-width="0.666667"/>
</svg>
