<svg width="108" height="99" viewBox="0 0 108 99" fill="none" xmlns="http://www.w3.org/2000/svg">
<path d="M108 28.4983C108 32.6457 107.259 36.7412 105.776 40.7894C104.293 44.8424 101.706 49.363 98.0136 54.3655C94.3212 59.3632 89.3728 65.0316 83.159 71.3803C76.9499 77.7243 69.0788 85.2681 59.5362 94.0023L54.0024 99L48.4638 94.0023C38.9259 85.2681 31.0501 77.7243 24.841 71.3803C18.6319 65.0316 13.6836 59.3584 9.99117 54.3655C6.29878 49.3677 3.71128 44.8424 2.22865 40.7894C0.746032 36.7412 0 32.641 0 28.4983C0 20.3971 2.72443 13.6185 8.16858 8.1768C13.6127 2.72561 20.3412 1.44891e-05 28.3492 1.44891e-05C33.477 1.44891e-05 38.2271 1.21874 42.5947 3.64674C46.9576 6.07946 50.7633 9.58919 54.0024 14.1807C57.7797 9.31994 61.7885 5.73935 66.0144 3.44362C70.2451 1.14788 74.7921 -0.00470924 79.6508 -0.00470924C87.6635 -0.00470924 94.392 2.72089 99.8314 8.16735C105.28 13.6138 108 20.3876 108 28.4888V28.4983Z" fill="#4E2AF4"/>
</svg>
