<svg width="16" height="16" viewBox="0 0 16 16" fill="none" xmlns="http://www.w3.org/2000/svg">
<path d="M4.66667 0H2.66667C1.95942 0 1.28115 0.280952 0.781049 0.781049C0.280952 1.28115 0 1.95942 0 2.66667L0 4.66667C0 5.37391 0.280952 6.05219 0.781049 6.55229C1.28115 7.05238 1.95942 7.33333 2.66667 7.33333H4.66667C5.37391 7.33333 6.05219 7.05238 6.55229 6.55229C7.05238 6.05219 7.33333 5.37391 7.33333 4.66667V2.66667C7.33333 1.95942 7.05238 1.28115 6.55229 0.781049C6.05219 0.280952 5.37391 0 4.66667 0V0ZM6 4.66667C6 5.02029 5.85952 5.35943 5.60948 5.60948C5.35943 5.85952 5.02029 6 4.66667 6H2.66667C2.31304 6 1.97391 5.85952 1.72386 5.60948C1.47381 5.35943 1.33333 5.02029 1.33333 4.66667V2.66667C1.33333 2.31304 1.47381 1.97391 1.72386 1.72386C1.97391 1.47381 2.31304 1.33333 2.66667 1.33333H4.66667C5.02029 1.33333 5.35943 1.47381 5.60948 1.72386C5.85952 1.97391 6 2.31304 6 2.66667V4.66667Z" fill="#4E2AF4"/>
<path d="M9.33317 5.66671H14.6665C14.8433 5.66671 15.0129 5.59647 15.1379 5.47144C15.2629 5.34642 15.3332 5.17685 15.3332 5.00004C15.3332 4.82323 15.2629 4.65366 15.1379 4.52864C15.0129 4.40361 14.8433 4.33337 14.6665 4.33337H9.33317C9.15636 4.33337 8.98679 4.40361 8.86177 4.52864C8.73674 4.65366 8.6665 4.82323 8.6665 5.00004C8.6665 5.17685 8.73674 5.34642 8.86177 5.47144C8.98679 5.59647 9.15636 5.66671 9.33317 5.66671Z" fill="#4E2AF4"/>
<path d="M9.33317 3.33333H14.6665C14.8433 3.33333 15.0129 3.26309 15.1379 3.13807C15.2629 3.01305 15.3332 2.84348 15.3332 2.66667C15.3332 2.48985 15.2629 2.32029 15.1379 2.19526C15.0129 2.07024 14.8433 2 14.6665 2H9.33317C9.15636 2 8.98679 2.07024 8.86177 2.19526C8.73674 2.32029 8.6665 2.48985 8.6665 2.66667C8.6665 2.84348 8.73674 3.01305 8.86177 3.13807C8.98679 3.26309 9.15636 3.33333 9.33317 3.33333Z" fill="#4E2AF4"/>
<path d="M4.66667 8H2.66667C1.95942 8 1.28115 8.28095 0.781049 8.78105C0.280952 9.28115 0 9.95943 0 10.6667L0 12.6667C0 13.3739 0.280952 14.0522 0.781049 14.5523C1.28115 15.0524 1.95942 15.3333 2.66667 15.3333H4.66667C5.37391 15.3333 6.05219 15.0524 6.55229 14.5523C7.05238 14.0522 7.33333 13.3739 7.33333 12.6667V10.6667C7.33333 9.95943 7.05238 9.28115 6.55229 8.78105C6.05219 8.28095 5.37391 8 4.66667 8ZM6 12.6667C6 13.0203 5.85952 13.3594 5.60948 13.6095C5.35943 13.8595 5.02029 14 4.66667 14H2.66667C2.31304 14 1.97391 13.8595 1.72386 13.6095C1.47381 13.3594 1.33333 13.0203 1.33333 12.6667V10.6667C1.33333 10.313 1.47381 9.97391 1.72386 9.72386C1.97391 9.47381 2.31304 9.33334 2.66667 9.33334H4.66667C5.02029 9.33334 5.35943 9.47381 5.60948 9.72386C5.85952 9.97391 6 10.313 6 10.6667V12.6667Z" fill="#4E2AF4"/>
<path d="M9.33317 12.6667H14.6665C14.8433 12.6667 15.0129 12.5965 15.1379 12.4714C15.2629 12.3464 15.3332 12.1769 15.3332 12C15.3332 11.8232 15.2629 11.6537 15.1379 11.5286C15.0129 11.4036 14.8433 11.3334 14.6665 11.3334H9.33317C9.15636 11.3334 8.98679 11.4036 8.86177 11.5286C8.73674 11.6537 8.6665 11.8232 8.6665 12C8.6665 12.1769 8.73674 12.3464 8.86177 12.4714C8.98679 12.5965 9.15636 12.6667 9.33317 12.6667Z" fill="#4E2AF4"/>
<path d="M9.33317 10.3333H14.6665C14.8433 10.3333 15.0129 10.2631 15.1379 10.1381C15.2629 10.013 15.3332 9.84348 15.3332 9.66667C15.3332 9.48985 15.2629 9.32029 15.1379 9.19526C15.0129 9.07024 14.8433 9 14.6665 9H9.33317C9.15636 9 8.98679 9.07024 8.86177 9.19526C8.73674 9.32029 8.6665 9.48985 8.6665 9.66667C8.6665 9.84348 8.73674 10.013 8.86177 10.1381C8.98679 10.2631 9.15636 10.3333 9.33317 10.3333Z" fill="#4E2AF4"/>
</svg>
