<svg width="28" height="28" viewBox="0 0 28 28" fill="none" xmlns="http://www.w3.org/2000/svg">
<circle cx="14" cy="14" r="14" fill="#5BA8FF"/>
<path d="M8 11.6667C8 10.7348 8 10.2688 8.15224 9.9013C8.35523 9.41124 8.74458 9.02189 9.23463 8.81891C9.60218 8.66666 10.0681 8.66666 11 8.66666H17C17.9319 8.66666 18.3978 8.66666 18.7654 8.81891C19.2554 9.02189 19.6448 9.41124 19.8478 9.9013C20 10.2688 20 10.7348 20 11.6667V12.1667C20 12.4428 19.7761 12.6667 19.5 12.6667H19.3333C18.597 12.6667 18 13.2636 18 14V14C18 14.7364 18.597 15.3333 19.3333 15.3333H19.5C19.7761 15.3333 20 15.5572 20 15.8333V16.3333C20 17.2652 20 17.7312 19.8478 18.0987C19.6448 18.5888 19.2554 18.9781 18.7654 19.1811C18.3978 19.3333 17.9319 19.3333 17 19.3333H11C10.0681 19.3333 9.60218 19.3333 9.23463 19.1811C8.74458 18.9781 8.35523 18.5888 8.15224 18.0987C8 17.7312 8 17.2652 8 16.3333V15.8333C8 15.5572 8.22386 15.3333 8.5 15.3333H8.66667C9.40305 15.3333 10 14.7364 10 14V14C10 13.2636 9.40305 12.6667 8.66667 12.6667H8.5C8.22386 12.6667 8 12.4428 8 12.1667V11.6667Z" stroke="white"/>
<path d="M13.7043 13.1257C13.8164 12.8357 13.8725 12.6907 13.9635 12.6706C13.9875 12.6653 14.0122 12.6653 14.0362 12.6706C14.1272 12.6907 14.1832 12.8357 14.2953 13.1257C14.3591 13.2906 14.3909 13.3731 14.4506 13.4291C14.4673 13.4449 14.4855 13.4589 14.5048 13.471C14.5737 13.5141 14.6598 13.5221 14.8318 13.5381C15.1232 13.5652 15.2688 13.5787 15.3133 13.6649C15.3225 13.6827 15.3288 13.7021 15.3318 13.722C15.3466 13.8186 15.2395 13.9197 15.0253 14.1219L14.9659 14.1781C14.8657 14.2726 14.8157 14.3199 14.7867 14.3788C14.7694 14.4142 14.7577 14.4523 14.7523 14.4916C14.7432 14.5572 14.7578 14.6257 14.7871 14.7629L14.7976 14.8119C14.8502 15.0578 14.8765 15.1808 14.8437 15.2412C14.8142 15.2955 14.7599 15.3303 14.6999 15.3332C14.6331 15.3365 14.539 15.257 14.3509 15.0978C14.2269 14.993 14.1649 14.9406 14.0961 14.9201C14.0332 14.9014 13.9665 14.9014 13.9036 14.9201C13.8348 14.9406 13.7728 14.993 13.6488 15.0978C13.4606 15.257 13.3665 15.3365 13.2998 15.3332C13.2398 15.3303 13.1855 15.2955 13.156 15.2412C13.1232 15.1808 13.1495 15.0578 13.2021 14.8119L13.2125 14.7629C13.2419 14.6257 13.2565 14.5572 13.2474 14.4916C13.242 14.4523 13.2303 14.4142 13.2129 14.3788C13.184 14.3199 13.1339 14.2726 13.0338 14.1781L12.9743 14.1219C12.7602 13.9197 12.6531 13.8186 12.6678 13.722C12.6709 13.7021 12.6772 13.6827 12.6864 13.6649C12.7309 13.5787 12.8765 13.5652 13.1678 13.5381C13.3399 13.5221 13.426 13.5141 13.4949 13.471C13.5142 13.4589 13.5324 13.4449 13.5491 13.4291C13.6087 13.3731 13.6406 13.2906 13.7043 13.1257Z" fill="white" stroke="white" stroke-width="0.666667"/>
</svg>
