<svg width="16" height="16" viewBox="0 0 16 16" fill="none" xmlns="http://www.w3.org/2000/svg">
<path fill-rule="evenodd" clip-rule="evenodd" d="M8.39952 15.5267C9.95421 13.3094 13.1036 8.53215 13.1036 6.21841C13.1036 4.74599 12.5186 3.33387 11.4775 2.29271C10.4363 1.25154 9.02421 0.666626 7.55178 0.666626C6.07936 0.666626 4.66724 1.25154 3.62608 2.29271C2.58492 3.33387 2 4.74599 2 6.21841C2 8.53215 5.14936 13.3094 6.70405 15.5267C7.12089 16.1212 7.98268 16.1212 8.39952 15.5267ZM9.40236 6.2184C9.40236 7.24046 8.57382 8.069 7.55177 8.069C6.52971 8.069 5.70117 7.24046 5.70117 6.2184C5.70117 5.19635 6.52971 4.36781 7.55177 4.36781C8.57382 4.36781 9.40236 5.19635 9.40236 6.2184Z" fill="#4E2AF4"/>
</svg>
