<svg width="16" height="16" viewBox="0 0 16 16" fill="none" xmlns="http://www.w3.org/2000/svg">
<path fill-rule="evenodd" clip-rule="evenodd" d="M8.39952 15.5268C9.95421 13.3094 13.1036 8.53218 13.1036 6.21844C13.1036 4.74602 12.5186 3.3339 11.4775 2.29274C10.4363 1.25157 9.02421 0.666656 7.55178 0.666656C6.07936 0.666656 4.66724 1.25157 3.62608 2.29274C2.58492 3.3339 2 4.74602 2 6.21844C2 8.53218 5.14936 13.3094 6.70405 15.5268C7.12089 16.1213 7.98268 16.1213 8.39952 15.5268ZM9.40236 6.21843C9.40236 7.24049 8.57382 8.06903 7.55177 8.06903C6.52971 8.06903 5.70117 7.24049 5.70117 6.21843C5.70117 5.19638 6.52971 4.36784 7.55177 4.36784C8.57382 4.36784 9.40236 5.19638 9.40236 6.21843Z" fill="#B5FA95"/>
</svg>
