<svg width="16" height="16" viewBox="0 0 16 16" fill="none" xmlns="http://www.w3.org/2000/svg">
<g id="icon/16px/favorite_star" clip-path="url(#clip0_2811_1546)">
<path id="Vector" d="M15.8473 6.39275C15.711 5.95868 15.4385 5.58002 15.0703 5.31277C14.7021 5.04552 14.2576 4.90386 13.8027 4.90875H10.89L10.0053 2.15141C9.86622 1.71739 9.59285 1.33876 9.22465 1.07012C8.85645 0.801491 8.41245 0.656738 7.95667 0.656738C7.50089 0.656738 7.05689 0.801491 6.68869 1.07012C6.32049 1.33876 6.04712 1.71739 5.908 2.15141L5.02334 4.90875H2.11067C1.65717 4.90939 1.21547 5.05334 0.848658 5.32002C0.48185 5.5867 0.208699 5.96247 0.0682192 6.39367C-0.0722604 6.82487 -0.0728822 7.28943 0.0664426 7.72101C0.205767 8.15258 0.477912 8.52908 0.844005 8.79675L3.21467 10.5301L2.31334 13.3214C2.16768 13.7543 2.16583 14.2227 2.30808 14.6568C2.45032 15.0909 2.72904 15.4673 3.10267 15.7301C3.46991 16.0013 3.91493 16.1465 4.37144 16.1443C4.82795 16.142 5.2715 15.9923 5.636 15.7174L7.95667 14.0094L10.278 15.7154C10.6446 15.985 11.0872 16.1315 11.5423 16.1337C11.9973 16.1359 12.4413 15.9938 12.8105 15.7278C13.1797 15.4617 13.455 15.0854 13.5969 14.6531C13.7387 14.2207 13.7398 13.7545 13.6 13.3214L12.6987 10.5301L15.072 8.79675C15.4423 8.53244 15.7176 8.15594 15.8573 7.72298C15.9969 7.29001 15.9934 6.82358 15.8473 6.39275ZM14.2853 7.72008L11.5227 9.73941C11.4092 9.82219 11.3248 9.9387 11.2814 10.0723C11.2381 10.2059 11.2381 10.3498 11.2813 10.4834L12.3313 13.7301C12.3845 13.8947 12.384 14.072 12.33 14.2364C12.2761 14.4008 12.1714 14.5439 12.031 14.645C11.8906 14.7461 11.7217 14.8001 11.5487 14.7993C11.3757 14.7984 11.2074 14.7426 11.068 14.6401L8.35134 12.6401C8.23691 12.556 8.09865 12.5107 7.95667 12.5107C7.8147 12.5107 7.67643 12.556 7.562 12.6401L4.84534 14.6401C4.70606 14.744 4.5373 14.8009 4.36351 14.8025C4.18973 14.8041 4.01997 14.7502 3.87882 14.6488C3.73768 14.5474 3.6325 14.4037 3.57854 14.2385C3.52457 14.0733 3.52462 13.8952 3.57867 13.7301L4.632 10.4834C4.67528 10.3498 4.67525 10.2059 4.63191 10.0723C4.58857 9.9387 4.50414 9.82219 4.39067 9.73941L1.628 7.72008C1.48887 7.61821 1.38549 7.47498 1.33263 7.31084C1.27977 7.14671 1.28013 6.97006 1.33366 6.80615C1.38719 6.64223 1.49115 6.49942 1.6307 6.39811C1.77024 6.29681 1.93823 6.2422 2.11067 6.24208H5.51067C5.65181 6.24208 5.78932 6.19727 5.90337 6.11413C6.01743 6.03098 6.10215 5.91379 6.14534 5.77941L7.17867 2.55875C7.23171 2.39394 7.33568 2.25021 7.47561 2.14825C7.61553 2.04628 7.7842 1.99135 7.95734 1.99135C8.13047 1.99135 8.29914 2.04628 8.43907 2.14825C8.579 2.25021 8.68296 2.39394 8.736 2.55875L9.76934 5.77941C9.81253 5.91379 9.89725 6.03098 10.0113 6.11413C10.1254 6.19727 10.2629 6.24208 10.404 6.24208H13.804C13.9764 6.2422 14.1444 6.29681 14.284 6.39811C14.4235 6.49942 14.5275 6.64223 14.581 6.80615C14.6345 6.97006 14.6349 7.14671 14.582 7.31084C14.5292 7.47498 14.4258 7.61821 14.2867 7.72008H14.2853Z" fill="black"/>
</g>
<defs>
<clipPath id="clip0_2811_1546">
<rect width="16" height="16" fill="white"/>
</clipPath>
</defs>
</svg>
