<svg width="28" height="28" viewBox="0 0 28 28" fill="none" xmlns="http://www.w3.org/2000/svg">
<circle cx="14" cy="14" r="14" fill="#B25BFF"/>
<path d="M16.4517 7C15.0438 7 13.9014 8.14245 13.9014 9.55037C13.9014 10.9583 15.0438 12.0984 16.4517 12.0984C17.8597 12.0984 18.9997 10.9583 18.9997 9.55037C18.9997 8.14245 17.8597 7 16.4517 7Z" fill="white"/>
<path d="M12.0031 12.8924C11.2114 12.8924 10.4767 13.2052 9.94098 13.7528V9.55035H9V20.5648H9.96942V15.4593C9.96942 14.4235 11.0147 13.8002 11.9486 13.8002C13.0578 13.8002 13.7215 14.5231 13.7215 15.5589V20.5648H14.6933V15.5589C14.6933 13.9874 13.6243 12.89 12.0078 12.89L12.0031 12.8924Z" fill="white"/>
</svg>
