<svg width="16" height="16" viewBox="0 0 16 16" fill="none" xmlns="http://www.w3.org/2000/svg">
<g clip-path="url(#clip0_1638_32456)">
<path d="M0.666667 4.00032H15.3333C15.5101 4.00032 15.6797 3.93008 15.8047 3.80506C15.9298 3.68004 16 3.51047 16 3.33366C16 3.15685 15.9298 2.98728 15.8047 2.86225C15.6797 2.73723 15.5101 2.66699 15.3333 2.66699H0.666667C0.489856 2.66699 0.320286 2.73723 0.195262 2.86225C0.0702379 2.98728 0 3.15685 0 3.33366C0 3.51047 0.0702379 3.68004 0.195262 3.80506C0.320286 3.93008 0.489856 4.00032 0.666667 4.00032Z" fill="white"/>
<path d="M15.333 6H5.99967C5.82286 6 5.65329 6.07024 5.52827 6.19526C5.40325 6.32029 5.33301 6.48985 5.33301 6.66667C5.33301 6.84348 5.40325 7.01304 5.52827 7.13807C5.65329 7.26309 5.82286 7.33333 5.99967 7.33333H15.333C15.5098 7.33333 15.6794 7.26309 15.8044 7.13807C15.9294 7.01304 15.9997 6.84348 15.9997 6.66667C15.9997 6.48985 15.9294 6.32029 15.8044 6.19526C15.6794 6.07024 15.5098 6 15.333 6Z" fill="white"/>
<path d="M15.3333 12.667H0.666667C0.489856 12.667 0.320286 12.7372 0.195262 12.8623C0.0702379 12.9873 0 13.1569 0 13.3337C0 13.5105 0.0702379 13.68 0.195262 13.8051C0.320286 13.9301 0.489856 14.0003 0.666667 14.0003H15.3333C15.5101 14.0003 15.6797 13.9301 15.8047 13.8051C15.9298 13.68 16 13.5105 16 13.3337C16 13.1569 15.9298 12.9873 15.8047 12.8623C15.6797 12.7372 15.5101 12.667 15.3333 12.667Z" fill="white"/>
<path d="M15.333 9.33301H5.99967C5.82286 9.33301 5.65329 9.40325 5.52827 9.52827C5.40325 9.6533 5.33301 9.82287 5.33301 9.99968C5.33301 10.1765 5.40325 10.3461 5.52827 10.4711C5.65329 10.5961 5.82286 10.6663 5.99967 10.6663H15.333C15.5098 10.6663 15.6794 10.5961 15.8044 10.4711C15.9294 10.3461 15.9997 10.1765 15.9997 9.99968C15.9997 9.82287 15.9294 9.6533 15.8044 9.52827C15.6794 9.40325 15.5098 9.33301 15.333 9.33301Z" fill="white"/>
<path d="M1.138 10.8301L3.12067 8.84746C3.25672 8.711 3.33312 8.52616 3.33312 8.33346C3.33312 8.14076 3.25672 7.95592 3.12067 7.81946L1.138 5.83679C1.04473 5.74355 0.925889 5.68006 0.796525 5.65437C0.66716 5.62868 0.533083 5.64194 0.411256 5.69247C0.289429 5.743 0.185327 5.82853 0.112121 5.93824C0.0389157 6.04794 -0.00010356 6.1769 2.06427e-07 6.30879V10.3581C-0.00010356 10.49 0.0389157 10.619 0.112121 10.7287C0.185327 10.8384 0.289429 10.9239 0.411256 10.9745C0.533083 11.025 0.66716 11.0382 0.796525 11.0125C0.925889 10.9869 1.04473 10.9234 1.138 10.8301Z" fill="white"/>
</g>
<defs>
<clipPath id="clip0_1638_32456">
<rect width="16" height="16" fill="white"/>
</clipPath>
</defs>
</svg>
