<svg width="16" height="16" viewBox="0 0 16 16" fill="none" xmlns="http://www.w3.org/2000/svg">
<path d="M13.6627 5.31158L7.30267 0.644918C6.80593 0.281175 6.21815 0.0621142 5.60451 0.0120268C4.99087 -0.0380605 4.37535 0.0827824 3.8262 0.361156C3.27704 0.63953 2.81572 1.06456 2.49337 1.58911C2.17103 2.11366 2.00026 2.71724 2 3.33292V12.6663C2.00011 13.2822 2.17089 13.8861 2.49338 14.4109C2.81588 14.9357 3.27748 15.3608 3.82695 15.6392C4.37642 15.9176 4.99227 16.0382 5.60616 15.9878C6.22006 15.9374 6.80797 15.7179 7.30467 15.3536L13.6647 10.6869C14.0868 10.3773 14.4302 9.97262 14.6668 9.50562C14.9034 9.03863 15.0268 8.52245 15.0268 7.99892C15.0268 7.47538 14.9034 6.95921 14.6668 6.49221C14.4302 6.02521 14.0868 5.62052 13.6647 5.31092L13.6627 5.31158ZM12.8733 9.61159L6.51333 14.2783C6.21534 14.496 5.86291 14.6271 5.49505 14.6569C5.12718 14.6867 4.75824 14.6142 4.42904 14.4473C4.09985 14.2805 3.82326 14.0258 3.62987 13.7114C3.43648 13.3971 3.33385 13.0353 3.33333 12.6663V3.33292C3.32963 2.96315 3.43033 2.59984 3.62385 2.28473C3.81737 1.96963 4.09587 1.71551 4.42733 1.55158C4.70926 1.40818 5.02103 1.33326 5.33733 1.33292C5.76126 1.33454 6.17348 1.47218 6.51333 1.72558L12.8733 6.39225C13.1263 6.57805 13.332 6.82079 13.4738 7.10083C13.6156 7.38087 13.6895 7.69036 13.6895 8.00425C13.6895 8.31814 13.6156 8.62763 13.4738 8.90767C13.332 9.18772 13.1263 9.43045 12.8733 9.61625V9.61159Z" fill="white"/>
</svg>
