<svg width="12" height="12" viewBox="0 0 12 12" fill="none" xmlns="http://www.w3.org/2000/svg">
<g clip-path="url(#clip0_1713_7752)">
<path d="M4.5 11.9995H0.5C0.367392 11.9995 0.240215 11.9468 0.146447 11.8531C0.0526784 11.7593 0 11.6321 0 11.4995C0 11.3669 0.0526784 11.2397 0.146447 11.146C0.240215 11.0522 0.367392 10.9995 0.5 10.9995H4.5C4.63261 10.9995 4.75979 11.0522 4.85355 11.146C4.94732 11.2397 5 11.3669 5 11.4995C5 11.6321 4.94732 11.7593 4.85355 11.8531C4.75979 11.9468 4.63261 11.9995 4.5 11.9995Z" fill="black"/>
<path d="M3.5 10H0.5C0.367392 10 0.240215 9.94733 0.146447 9.85356C0.0526784 9.75979 0 9.63261 0 9.5C0 9.36739 0.0526784 9.24022 0.146447 9.14645C0.240215 9.05268 0.367392 9 0.5 9H3.5C3.63261 9 3.75979 9.05268 3.85355 9.14645C3.94732 9.24022 4 9.36739 4 9.5C4 9.63261 3.94732 9.75979 3.85355 9.85356C3.75979 9.94733 3.63261 10 3.5 10Z" fill="black"/>
<path d="M2.5 8.00049H0.5C0.367392 8.00049 0.240215 7.94782 0.146447 7.85405C0.0526784 7.76028 0 7.6331 0 7.50049C0 7.36788 0.0526784 7.2407 0.146447 7.14694C0.240215 7.05317 0.367392 7.00049 0.5 7.00049H2.5C2.63261 7.00049 2.75979 7.05317 2.85355 7.14694C2.94732 7.2407 3 7.36788 3 7.50049C3 7.6331 2.94732 7.76028 2.85355 7.85405C2.75979 7.94782 2.63261 8.00049 2.5 8.00049Z" fill="black"/>
<path d="M6.49998 11.9774C6.36738 11.9833 6.23785 11.9363 6.13991 11.8467C6.04197 11.7571 5.98364 11.6323 5.97773 11.4997C5.97183 11.3671 6.01885 11.2376 6.10845 11.1396C6.19804 11.0417 6.32288 10.9833 6.45548 10.9774C7.40171 10.8909 8.30368 10.5365 9.05575 9.95573C9.80781 9.375 10.3788 8.59201 10.7019 7.69845C11.025 6.80488 11.0868 5.83776 10.8801 4.91034C10.6734 3.98292 10.2066 3.13361 9.53461 2.46189C8.86258 1.79016 8.01305 1.32383 7.08554 1.11752C6.15803 0.911207 5.19093 0.973452 4.29752 1.29697C3.40411 1.62048 2.62138 2.19186 2.041 2.9442C1.46062 3.69653 1.10663 4.59867 1.02049 5.54493C1.00856 5.67701 0.944642 5.79894 0.84281 5.88389C0.740978 5.96885 0.609568 6.00987 0.477491 5.99794C0.345413 5.986 0.223486 5.92209 0.138532 5.82025C0.0535783 5.71842 0.0125566 5.58701 0.0244913 5.45493C0.163936 3.91659 0.891292 2.49129 2.05515 1.47572C3.21901 0.460151 4.72971 -0.0674325 6.27276 0.00279131C7.81581 0.0730151 9.27234 0.735635 10.3391 1.85272C11.4059 2.9698 12.0008 4.45528 12 5.99994C12.0076 7.49911 11.4507 8.94623 10.4399 10.0534C9.42916 11.1607 8.03864 11.8468 6.54498 11.9754C6.52998 11.9769 6.51448 11.9774 6.49998 11.9774Z" fill="black"/>
<path d="M6 3C5.86739 3 5.74021 3.05268 5.64645 3.14645C5.55268 3.24021 5.5 3.36739 5.5 3.5V6C5.50003 6.1326 5.55273 6.25975 5.6465 6.3535L7.1465 7.8535C7.2408 7.94458 7.3671 7.99498 7.4982 7.99384C7.6293 7.9927 7.7547 7.94011 7.84741 7.84741C7.94011 7.75471 7.9927 7.6293 7.99384 7.4982C7.99498 7.3671 7.94458 7.2408 7.8535 7.1465L6.5 5.793V3.5C6.5 3.36739 6.44732 3.24021 6.35355 3.14645C6.25978 3.05268 6.13261 3 6 3Z" fill="black"/>
</g>
<defs>
<clipPath id="clip0_1713_7752">
<rect width="12" height="12" fill="white"/>
</clipPath>
</defs>
</svg>
