<svg width="18" height="18" viewBox="0 0 18 18" fill="none" xmlns="http://www.w3.org/2000/svg">
<g clip-path="url(#clip0_819_2105)">
<path d="M7.40867 13.5915C7.61762 13.8006 7.86572 13.9664 8.1388 14.0796C8.41187 14.1928 8.70457 14.251 9.00017 14.251C9.29576 14.251 9.58846 14.1928 9.86154 14.0796C10.1346 13.9664 10.3827 13.8006 10.5917 13.5915L12.9999 11.1833C13.129 11.0404 13.1983 10.8535 13.1934 10.661C13.1884 10.4685 13.1096 10.2853 12.9734 10.1494C12.8371 10.0134 12.6537 9.93499 12.4613 9.93045C12.2688 9.92592 12.0819 9.99558 11.9394 10.125L9.74492 12.3203L9.75017 0.75C9.75017 0.551088 9.67115 0.360322 9.5305 0.21967C9.38985 0.0790176 9.19908 0 9.00017 0V0C8.80126 0 8.61049 0.0790176 8.46984 0.21967C8.32919 0.360322 8.25017 0.551088 8.25017 0.75L8.24342 12.306L6.06092 10.125C5.92019 9.98437 5.72936 9.9054 5.5304 9.90547C5.33145 9.90554 5.14068 9.98464 5.00004 10.1254C4.85941 10.2661 4.78045 10.4569 4.78052 10.6559C4.78059 10.8548 4.85969 11.0456 5.00042 11.1863L7.40867 13.5915Z" fill="white"/>
<path d="M17.25 11.9999C17.0511 11.9999 16.8603 12.0789 16.7197 12.2195C16.579 12.3602 16.5 12.551 16.5 12.7499V15.7499C16.5 15.9488 16.421 16.1395 16.2803 16.2802C16.1397 16.4209 15.9489 16.4999 15.75 16.4999H2.25C2.05109 16.4999 1.86032 16.4209 1.71967 16.2802C1.57902 16.1395 1.5 15.9488 1.5 15.7499V12.7499C1.5 12.551 1.42098 12.3602 1.28033 12.2195C1.13968 12.0789 0.948912 11.9999 0.75 11.9999C0.551088 11.9999 0.360322 12.0789 0.21967 12.2195C0.0790176 12.3602 0 12.551 0 12.7499L0 15.7499C0 16.3466 0.237053 16.9189 0.65901 17.3409C1.08097 17.7628 1.65326 17.9999 2.25 17.9999H15.75C16.3467 17.9999 16.919 17.7628 17.341 17.3409C17.7629 16.9189 18 16.3466 18 15.7499V12.7499C18 12.551 17.921 12.3602 17.7803 12.2195C17.6397 12.0789 17.4489 11.9999 17.25 11.9999Z" fill="white"/>
</g>
<defs>
<clipPath id="clip0_819_2105">
<rect width="18" height="18" fill="white"/>
</clipPath>
</defs>
</svg>
