<svg width="12" height="12" viewBox="0 0 12 12" fill="none" xmlns="http://www.w3.org/2000/svg">
<g clip-path="url(#clip0_1713_7760)">
<path d="M10.7299 2.067C10.6288 1.48763 10.3264 0.962553 9.87597 0.584389C9.42554 0.206225 8.85604 -0.000737743 8.26791 2.88757e-06H3.72542C3.13683 -0.000892013 2.56686 0.206246 2.11618 0.584831C1.6655 0.963416 1.36311 1.48909 1.26242 2.069L0.0379208 9.069C-0.0249611 9.42829 -0.00846457 9.79698 0.0862529 10.1492C0.18097 10.5014 0.351614 10.8287 0.586213 11.108C0.820811 11.3873 1.11368 11.6118 1.44427 11.7659C1.77487 11.92 2.13517 11.9999 2.49992 12H9.49991C9.8649 12 10.2255 11.9202 10.5563 11.766C10.8871 11.6118 11.1802 11.387 11.4148 11.1075C11.6495 10.828 11.8202 10.5005 11.9148 10.1479C12.0094 9.79543 12.0256 9.42647 11.9624 9.067L10.7299 2.067ZM10.6499 10.4645C10.509 10.6324 10.333 10.7673 10.1343 10.8598C9.93562 10.9523 9.71908 11.0002 9.49991 11H2.49992C2.28101 11 2.06475 10.9521 1.86632 10.8596C1.66789 10.7672 1.49211 10.6324 1.35131 10.4648C1.21051 10.2971 1.10811 10.1007 1.05129 9.88932C0.994476 9.67791 0.984621 9.45663 1.02242 9.241L2.24692 2.241C2.30788 1.89322 2.48958 1.57809 2.76003 1.35109C3.03047 1.12408 3.37233 0.999761 3.72542 1H8.26791C8.6206 1.00007 8.96198 1.12441 9.23209 1.35119C9.50221 1.57796 9.68378 1.89266 9.74491 2.24L10.9764 9.24C11.0146 9.45557 11.0052 9.67689 10.9488 9.88843C10.8924 10.1 10.7904 10.2966 10.6499 10.4645ZM6.49991 2.5V3.5C6.49991 3.63261 6.44723 3.75979 6.35347 3.85356C6.2597 3.94732 6.13252 4 5.99991 4C5.86731 4 5.74013 3.94732 5.64636 3.85356C5.55259 3.75979 5.49991 3.63261 5.49991 3.5V2.5C5.49991 2.36739 5.55259 2.24022 5.64636 2.14645C5.74013 2.05268 5.86731 2 5.99991 2C6.13252 2 6.2597 2.05268 6.35347 2.14645C6.44723 2.24022 6.49991 2.36739 6.49991 2.5ZM6.49991 5.5V6.5C6.49991 6.63261 6.44723 6.75979 6.35347 6.85356C6.2597 6.94732 6.13252 7 5.99991 7C5.86731 7 5.74013 6.94732 5.64636 6.85356C5.55259 6.75979 5.49991 6.63261 5.49991 6.5V5.5C5.49991 5.36739 5.55259 5.24022 5.64636 5.14645C5.74013 5.05268 5.86731 5 5.99991 5C6.13252 5 6.2597 5.05268 6.35347 5.14645C6.44723 5.24022 6.49991 5.36739 6.49991 5.5ZM6.49991 8.5V9.5C6.49991 9.63261 6.44723 9.75979 6.35347 9.85356C6.2597 9.94732 6.13252 10 5.99991 10C5.86731 10 5.74013 9.94732 5.64636 9.85356C5.55259 9.75979 5.49991 9.63261 5.49991 9.5V8.5C5.49991 8.36739 5.55259 8.24022 5.64636 8.14645C5.74013 8.05268 5.86731 8 5.99991 8C6.13252 8 6.2597 8.05268 6.35347 8.14645C6.44723 8.24022 6.49991 8.36739 6.49991 8.5Z" fill="black"/>
</g>
<defs>
<clipPath id="clip0_1713_7760">
<rect width="12" height="12" fill="white"/>
</clipPath>
</defs>
</svg>
