<svg width="32" height="32" viewBox="0 0 32 32" fill="none" xmlns="http://www.w3.org/2000/svg">
<circle opacity="0.3" cx="16" cy="16" r="16" fill="white"/>
<g clip-path="url(#clip0_1713_1473)">
<path d="M14.9391 19.061C15.0784 19.2004 15.2438 19.311 15.4259 19.3864C15.6079 19.4619 15.803 19.5007 16.0001 19.5007C16.1972 19.5007 16.3923 19.4619 16.5744 19.3864C16.7564 19.311 16.9218 19.2004 17.0611 19.061L18.6666 17.4555C18.7527 17.3603 18.7989 17.2356 18.7956 17.1073C18.7923 16.979 18.7398 16.8569 18.6489 16.7662C18.5581 16.6756 18.4358 16.6233 18.3075 16.6203C18.1792 16.6173 18.0546 16.6637 17.9596 16.75L16.4966 18.2135L16.5001 10.5C16.5001 10.3674 16.4474 10.2402 16.3537 10.1464C16.2599 10.0527 16.1327 10 16.0001 10V10C15.8675 10 15.7403 10.0527 15.6466 10.1464C15.5528 10.2402 15.5001 10.3674 15.5001 10.5L15.4956 18.204L14.0406 16.75C13.9468 16.6562 13.8196 16.6036 13.6869 16.6036C13.5543 16.6037 13.4271 16.6564 13.3334 16.7503C13.2396 16.8441 13.187 16.9713 13.187 17.1039C13.1871 17.2366 13.2398 17.3637 13.3336 17.4575L14.9391 19.061Z" fill="black"/>
<path d="M21.5 18C21.3674 18 21.2402 18.0527 21.1464 18.1464C21.0527 18.2402 21 18.3674 21 18.5V20.5C21 20.6326 20.9473 20.7598 20.8536 20.8535C20.7598 20.9473 20.6326 21 20.5 21H11.5C11.3674 21 11.2402 20.9473 11.1464 20.8535C11.0527 20.7598 11 20.6326 11 20.5V18.5C11 18.3674 10.9473 18.2402 10.8536 18.1464C10.7598 18.0527 10.6326 18 10.5 18C10.3674 18 10.2402 18.0527 10.1464 18.1464C10.0527 18.2402 10 18.3674 10 18.5V20.5C10 20.8978 10.158 21.2793 10.4393 21.5607C10.7206 21.842 11.1022 22 11.5 22H20.5C20.8978 22 21.2794 21.842 21.5607 21.5607C21.842 21.2793 22 20.8978 22 20.5V18.5C22 18.3674 21.9473 18.2402 21.8536 18.1464C21.7598 18.0527 21.6326 18 21.5 18Z" fill="black"/>
</g>
<defs>
<clipPath id="clip0_1713_1473">
<rect width="12" height="12" fill="white" transform="translate(10 10)"/>
</clipPath>
</defs>
</svg>
