<svg width="16" height="16" viewBox="0 0 16 16" fill="none" xmlns="http://www.w3.org/2000/svg">
<g clip-path="url(#clip0_1702_48675)">
<path d="M15.8045 0.195679C15.6795 0.0706986 15.51 0.000488281 15.3332 0.000488281C15.1564 0.000488281 14.9869 0.0706986 14.8619 0.195679L7.99986 7.05768L1.13786 0.195679C1.01284 0.0706986 0.8433 0.000488281 0.666524 0.000488281C0.489748 0.000488281 0.320209 0.0706986 0.195191 0.195679C0.0702103 0.320698 0 0.490236 0 0.667013C0 0.843789 0.0702103 1.01333 0.195191 1.13835L7.05719 8.00035L0.195191 14.8623C0.0702103 14.9874 0 15.1569 0 15.3337C0 15.5105 0.0702103 15.68 0.195191 15.805C0.320209 15.93 0.489748 16.0002 0.666524 16.0002C0.8433 16.0002 1.01284 15.93 1.13786 15.805L7.99986 8.94301L14.8619 15.805C14.9869 15.93 15.1564 16.0002 15.3332 16.0002C15.51 16.0002 15.6795 15.93 15.8045 15.805C15.9295 15.68 15.9997 15.5105 15.9997 15.3337C15.9997 15.1569 15.9295 14.9874 15.8045 14.8623L8.94252 8.00035L15.8045 1.13835C15.9295 1.01333 15.9997 0.843789 15.9997 0.667013C15.9997 0.490236 15.9295 0.320698 15.8045 0.195679Z" fill="white"/>
</g>
<defs>
<clipPath id="clip0_1702_48675">
<rect width="16" height="16" fill="white"/>
</clipPath>
</defs>
</svg>
