<svg width="17" height="14" viewBox="0 0 17 14" fill="none" xmlns="http://www.w3.org/2000/svg">
<g clip-path="url(#clip0_1702_40537)">
<path d="M7.37403 1.58338C8.09256 1.58574 8.80348 1.73057 9.46566 2.0095C10.1278 2.28843 10.7281 2.69592 11.2318 3.20838H8.99903V4.29171H11.7848C12.0515 4.29143 12.3072 4.18536 12.4958 3.99678C12.6843 3.80821 12.7904 3.55253 12.7907 3.28584V0.500047H11.7074V2.1673C10.7743 1.3271 9.61761 0.775569 8.37742 0.579569C7.13722 0.383569 5.8668 0.55151 4.72014 1.06304C3.57348 1.57456 2.59981 2.40771 1.91714 3.4615C1.23448 4.51528 0.872136 5.74446 0.874031 7.00005H1.95736C1.95894 5.56394 2.53013 4.18711 3.54561 3.17163C4.56109 2.15615 5.93792 1.58496 7.37403 1.58338Z" fill="black"/>
<path d="M12.7904 7C12.7919 8.07539 12.4729 9.12684 11.874 10.0201C11.2752 10.9133 10.4236 11.6077 9.42823 12.0147C8.43281 12.4216 7.33868 12.5226 6.28558 12.3048C5.23248 12.0869 4.26822 11.5601 3.51595 10.7917H5.7487V9.70833H2.96291C2.69622 9.70862 2.44054 9.81469 2.25196 10.0033C2.06339 10.1918 1.95732 10.4475 1.95703 10.7142V13.5H3.04036V11.8328C3.9734 12.673 5.13012 13.2245 6.37031 13.4205C7.6105 13.6165 8.88092 13.4485 10.0276 12.937C11.1742 12.4255 12.1479 11.5923 12.8306 10.5385C13.5132 9.48476 13.8756 8.25558 13.8737 7H12.7904Z" fill="black"/>
</g>
<path d="M16.874 9.5C16.874 11.7091 15.0831 13.5 12.874 13.5C10.6648 13.5 8.87398 11.7091 8.87398 9.5C8.87398 7.29086 10.6648 5.5 12.874 5.5C15.0831 5.5 16.874 7.29086 16.874 9.5Z" fill="black"/>
<path d="M13.3937 11.818H12.6017V7.99H12.1517V7.258H13.3937V11.818Z" fill="#D9D9D9"/>
<defs>
<clipPath id="clip0_1702_40537">
<rect width="13" height="13" fill="white" transform="translate(0.874023 0.5)"/>
</clipPath>
</defs>
</svg>
