<svg width="17" height="13" viewBox="0 0 17 13" fill="none" xmlns="http://www.w3.org/2000/svg">
<g clip-path="url(#clip0_1786_22128)">
<path d="M7.37403 1.08338C8.09256 1.08574 8.80348 1.23057 9.46566 1.5095C10.1278 1.78843 10.7281 2.19592 11.2318 2.70838H8.99903V3.79171H11.7848C12.0515 3.79143 12.3072 3.68536 12.4958 3.49678C12.6843 3.30821 12.7904 3.05253 12.7907 2.78584V4.74383e-05H11.7074V1.6673C10.7743 0.827095 9.61761 0.275569 8.37742 0.0795689C7.13722 -0.116431 5.8668 0.0515096 4.72014 0.563036C3.57348 1.07456 2.59981 1.90771 1.91714 2.9615C1.23448 4.01528 0.872136 5.24446 0.874031 6.50005H1.95736C1.95894 5.06394 2.53013 3.68711 3.54561 2.67163C4.56109 1.65615 5.93792 1.08496 7.37403 1.08338Z" fill="#475467"/>
<path d="M12.7904 6.5C12.7919 7.57539 12.4729 8.62684 11.874 9.52005C11.2752 10.4133 10.4236 11.1077 9.42823 11.5147C8.43281 11.9216 7.33868 12.0226 6.28558 11.8048C5.23248 11.5869 4.26822 11.0601 3.51595 10.2917H5.7487V9.20833H2.96291C2.69622 9.20862 2.44054 9.31469 2.25196 9.50326C2.06339 9.69184 1.95732 9.94752 1.95703 10.2142V13H3.04036V11.3328C3.9734 12.173 5.13012 12.7245 6.37031 12.9205C7.6105 13.1165 8.88092 12.9485 10.0276 12.437C11.1742 11.9255 12.1479 11.0923 12.8306 10.0385C13.5132 8.98476 13.8756 7.75558 13.8737 6.5H12.7904Z" fill="#475467"/>
</g>
<path d="M16.874 9C16.874 11.2091 15.0831 13 12.874 13C10.6648 13 8.87398 11.2091 8.87398 9C8.87398 6.79086 10.6648 5 12.874 5C15.0831 5 16.874 6.79086 16.874 9Z" fill="#475467"/>
<path d="M13.3937 11.318H12.6017V7.49H12.1517V6.758H13.3937V11.318Z" fill="#D9D9D9"/>
<defs>
<clipPath id="clip0_1786_22128">
<rect width="13" height="13" fill="white" transform="translate(0.874023)"/>
</clipPath>
</defs>
</svg>
