<svg width="24" height="24" viewBox="0 0 24 24" fill="none" xmlns="http://www.w3.org/2000/svg">
<g id="soles 1">
<path id="Vector" d="M6.34877 13.59L9.63752 12.7425C9.71418 12.7234 9.78277 12.6804 9.83334 12.6197C9.88391 12.5591 9.91383 12.4838 9.91877 12.405C9.91486 11.663 10.034 10.9255 10.2713 10.2225C10.655 9.18088 11.2557 7.87308 11.2012 6.74252C11.2157 4.69765 9.64998 1.42133 7.28629 1.49999C5.22795 1.52066 3.97684 5.0215 4.44379 8.16756C4.63127 9.6525 5.03627 11.7675 5.92502 13.4063C5.9654 13.4794 6.02889 13.5371 6.10556 13.5704C6.18223 13.6036 6.26776 13.6105 6.34877 13.59Z" fill="#4E2AF4"/>
<path id="Vector_2" d="M9.76506 13.2975L6.39756 14.1637C6.31247 14.1864 6.23805 14.2383 6.18733 14.3102C6.1366 14.3822 6.11279 14.4697 6.12006 14.5575C6.36006 17.7262 7.32006 18.5287 7.42131 18.6037C7.71643 18.8641 8.07369 19.0441 8.45861 19.1262C8.84353 19.2083 9.24311 19.1898 9.61881 19.0725C10.054 18.9265 10.4369 18.6562 10.7202 18.295C11.0034 17.9338 11.1746 17.4974 11.2126 17.04C11.3438 15.4087 10.2263 13.545 10.1813 13.4662C10.1393 13.3971 10.0761 13.3433 10.0011 13.3129C9.92615 13.2825 9.84336 13.2771 9.76506 13.2975Z" fill="#4E2AF4"/>
<path id="Vector_3" d="M19.4588 8.22753C18.78 4.92753 16.9388 4.82253 16.7138 4.82253C14.9663 4.75503 13.8675 6.43503 13.2563 7.84878C12.6813 9.18098 12.6477 10.6847 13.1625 12.0413L13.7288 13.545C13.9006 13.997 14.003 14.4724 14.0325 14.955L14.0813 15.7275C14.0868 15.8062 14.1169 15.8811 14.1674 15.9417C14.2179 16.0023 14.2861 16.0454 14.3625 16.065L17.6513 16.9125C17.7323 16.933 17.8178 16.9261 17.8945 16.8929C17.9711 16.8596 18.0346 16.8019 18.075 16.7288C18.9638 15.0863 19.3688 12.975 19.5563 11.49C19.7021 10.4045 19.6692 9.30241 19.4588 8.22753Z" fill="#4E2AF4"/>
<path id="Vector_4" d="M17.6024 17.4862L14.2349 16.62C14.1566 16.5996 14.0739 16.605 13.9989 16.6354C13.9239 16.6658 13.8607 16.7196 13.8187 16.7887C13.7737 16.8675 12.6562 18.7312 12.7874 20.3625C12.8177 20.7865 12.9654 21.1938 13.214 21.5386C13.4626 21.8835 13.8024 22.1523 14.1951 22.315C14.5879 22.4778 15.0182 22.5279 15.4378 22.4599C15.8575 22.3919 16.2499 22.2084 16.5712 21.9299C16.6799 21.8475 17.6399 21.0487 17.8799 17.8762C17.8866 17.789 17.8625 17.7023 17.8118 17.631C17.7611 17.5598 17.687 17.5085 17.6024 17.4862Z" fill="#4E2AF4"/>
</g>
</svg>
